<svg width="100" height="100" viewBox="0 0 100 100" fill="none" xmlns="http://www.w3.org/2000/svg">
<circle cx="50" cy="50" r="50" fill="#FFA012"/>
<path fill-rule="evenodd" clip-rule="evenodd" d="M29.5991 30.1251C28.5533 30.3782 27.7698 30.98 27.2754 31.9098L27 32.4278V49.9987V67.5696L27.2754 68.0875C27.6236 68.7425 28.0412 69.1735 28.642 69.4986C29.1602 69.7789 29.9783 70 30.4973 70C30.9392 70 31.3475 69.6746 31.4195 69.2651C31.4658 69.0018 31.4366 68.9366 31.161 68.6873C30.9513 68.4977 30.7686 68.4061 30.5991 68.4058C29.8813 68.4045 29.1762 67.9959 28.8824 67.4109C28.729 67.1055 28.7219 66.4253 28.72 52.0108L28.7181 36.9301H49.5112H70.3043V52.0151V67.1L70.0755 67.5152C69.9056 67.8235 69.7411 67.9866 69.4367 68.1485L69.0268 68.3664L53.4463 68.4063L37.8659 68.4461L37.6532 68.6697C37.2628 69.0802 37.4106 69.7112 37.9437 69.9106C38.127 69.979 42.1485 69.9971 53.7403 69.9814L69.2911 69.9602L69.7757 69.7797C70.4911 69.5134 71.0638 69.096 71.4439 68.5641C72.127 67.6081 72.0774 69.1517 72.0484 49.7596L72.0224 32.4278L71.747 31.9098C71.3988 31.2549 70.9812 30.8238 70.3803 30.4987C69.3869 29.9614 70.8789 29.9968 49.4707 30.0026C32.6956 30.0071 30.0184 30.0236 29.5991 30.1251ZM69.203 31.7422C69.3968 31.8233 69.6624 31.9928 69.793 32.1189C70.2306 32.541 70.3043 32.8319 70.3043 34.1385V35.3363H49.5112H28.7181L28.72 34.1211C28.7216 33.1081 28.7493 32.8515 28.8862 32.5788C29.0872 32.1784 29.3567 31.937 29.8194 31.7426C30.1595 31.5998 30.8507 31.5946 49.5112 31.5946C68.1496 31.5946 68.8633 31.5999 69.203 31.7422ZM31.4836 32.6224C31.2192 32.7233 30.9207 33.0927 30.9207 33.3191C30.9207 34.3132 32.5084 34.4376 32.6541 33.4549C32.696 33.1733 32.6675 33.0928 32.4505 32.8771C32.1815 32.6099 31.788 32.5062 31.4836 32.6224ZM34.7093 32.6006C34.0201 32.8439 33.9152 33.7326 34.5411 34.0253C35.1403 34.3055 35.7393 34.0397 35.826 33.4549C35.8678 33.1733 35.8394 33.0928 35.6224 32.8771C35.374 32.6304 34.9708 32.5083 34.7093 32.6006ZM37.8811 32.6006C37.192 32.8439 37.087 33.7326 37.7129 34.0253C38.3276 34.3128 39.0265 33.9755 39.0265 33.3914C39.0265 32.8941 38.3577 32.4324 37.8811 32.6006ZM55.1778 38.4811C54.7978 38.6306 54.6642 38.9061 54.5407 39.7962C54.4832 40.2112 54.4282 40.5545 54.4186 40.559C54.4089 40.5635 54.2148 40.6638 53.9871 40.7816L53.5731 40.9961L52.675 40.6725C51.6993 40.3209 51.4292 40.3117 51.119 40.6197C50.8227 40.914 49.0707 43.7389 49.0707 43.9223C49.0707 44.25 49.2808 44.5079 49.8692 44.9025C50.6465 45.4237 50.6749 45.4608 50.6841 45.9686L50.692 46.4031L49.9938 46.8871C49.2583 47.3972 49.0789 47.6003 49.0737 47.9279C49.0707 48.1307 50.7893 50.9217 51.1192 51.2496C51.4335 51.562 51.7144 51.5531 52.687 51.2003L53.5791 50.8765L53.9902 51.0893C54.2162 51.2062 54.4089 51.3058 54.4186 51.3103C54.4282 51.3149 54.4832 51.6581 54.5407 52.0731C54.7358 53.479 54.7858 53.5049 57.3086 53.5049C59.2386 53.5049 59.6188 53.4458 59.8144 53.1154C59.8677 53.0252 59.9678 52.5878 60.0367 52.1436C60.1057 51.6993 60.1743 51.3282 60.1891 51.3189C60.204 51.3096 60.3997 51.207 60.6241 51.0909L61.0322 50.8796L61.9224 51.2051C62.8542 51.5458 63.0723 51.5588 63.4165 51.2946C63.5171 51.2173 64.0246 50.4907 64.5443 49.6799C65.8091 47.7064 65.8093 47.7132 64.4719 46.7937L63.8725 46.3815V45.9382V45.4947L64.4673 45.0842C65.8089 44.1579 65.8088 44.1631 64.5392 42.1894C64.0176 41.3786 63.552 40.6722 63.5044 40.6196C63.4568 40.5671 63.2835 40.484 63.1194 40.435C62.8519 40.3552 62.7281 40.3795 61.9294 40.6694L61.0381 40.9928L60.627 40.78C60.4011 40.6631 60.204 40.5597 60.1891 40.5504C60.1743 40.5411 60.1048 40.1646 60.0349 39.7138C59.9649 39.2631 59.8486 38.8127 59.7764 38.713C59.7042 38.6133 59.496 38.4942 59.3138 38.4485C58.801 38.3197 55.5223 38.3455 55.1778 38.4811ZM43.6971 39.4953C43.3631 39.6071 43.1763 39.7952 43.1174 40.079C43.0367 40.4679 43.2639 40.7793 43.8722 41.1135L44.4037 41.4055L43.4552 41.8351C41.6481 42.6536 39.9103 44.025 38.7718 45.531C37.8632 46.7331 37.0001 48.4794 37.0001 49.116C37.0001 49.69 37.6414 50.0333 38.2303 49.7743C38.4989 49.6562 38.5732 49.5495 38.852 48.8831C39.3393 47.7182 39.5162 47.3972 40.1334 46.5588C41.1118 45.2295 42.5039 44.0901 44.051 43.3524C44.4733 43.151 44.8399 42.9862 44.8657 42.9862C44.8914 42.9862 44.7949 43.2396 44.6511 43.5492C44.3444 44.2094 44.3693 44.4746 44.7667 44.777C45.2268 45.1273 45.8415 44.9783 46.1191 44.4492C46.6877 43.3655 47.3966 41.8148 47.3966 41.6548C47.3966 41.2419 47.1587 41.0414 45.782 40.2936C44.3015 39.4894 44.0278 39.3847 43.6971 39.4953ZM58.4136 40.7268C58.4884 41.1277 58.605 41.5162 58.6728 41.5902C58.7408 41.6642 59.0563 41.8443 59.374 41.9904C59.6918 42.1366 60.0884 42.3487 60.2552 42.4618C60.6603 42.7364 61.0572 42.7267 61.8457 42.4232C62.1949 42.2888 62.4916 42.1902 62.505 42.204C62.5185 42.2179 62.7411 42.5673 62.9996 42.9804L63.4696 43.7316L63.08 44.0164C62.8657 44.1729 62.5599 44.414 62.4005 44.5521L62.1104 44.8031V45.9347V47.0662L62.4005 47.3172C62.5599 47.4553 62.8657 47.6964 63.08 47.8529L63.4696 48.1377L62.9996 48.8889C62.7411 49.302 62.5196 49.6504 62.5073 49.6632C62.4952 49.6759 62.1818 49.5773 61.8109 49.444C60.9803 49.1456 60.653 49.1379 60.2552 49.4075C60.0884 49.5206 59.685 49.7358 59.359 49.8857C59.033 50.0356 58.7084 50.2389 58.6377 50.3374C58.5669 50.436 58.461 50.8304 58.4021 51.2139L58.2951 51.9111H57.2952C56.7453 51.9111 56.2952 51.8843 56.295 51.8514C56.2934 51.5663 56.0193 50.3608 55.9353 50.2692C55.8763 50.2049 55.553 50.0275 55.2169 49.8749C54.8807 49.7223 54.4766 49.5084 54.3188 49.3997C53.9362 49.1357 53.5512 49.146 52.7852 49.4409C52.4435 49.5723 52.1465 49.6799 52.125 49.6799C52.0849 49.6799 51.204 48.3037 51.1637 48.1781C51.1513 48.1393 51.426 47.9053 51.7741 47.6581C52.1223 47.4109 52.4265 47.1461 52.4501 47.0697C52.5228 46.8338 52.4926 44.8665 52.4142 44.7327C52.3734 44.6633 52.061 44.4146 51.7198 44.18L51.0995 43.7536L51.3074 43.4296C51.4217 43.2515 51.643 42.8996 51.7991 42.6476C51.9553 42.3956 52.0937 42.1894 52.1066 42.1894C52.1196 42.1894 52.4186 42.297 52.7711 42.4284C53.5928 42.7349 53.9101 42.734 54.4086 42.4238C54.624 42.2898 55.0308 42.0766 55.3126 41.9502C55.5945 41.8236 55.874 41.6669 55.9338 41.6018C56.0193 41.5085 56.2935 40.3047 56.295 40.0153C56.2952 39.981 56.7415 39.9631 57.2866 39.9755L58.2778 39.998L58.4136 40.7268ZM56.1121 43.2526C55.4278 43.5072 54.997 43.8261 54.6143 44.3609C53.7928 45.5093 53.9642 47.0178 55.0251 47.9773C55.4051 48.3211 56.0409 48.6549 56.5112 48.7576C57.0254 48.8699 57.9269 48.8155 58.4424 48.641C59.1461 48.4029 59.8953 47.7595 60.2221 47.1126C60.4374 46.6866 60.4751 46.511 60.4751 45.9347C60.4751 45.3583 60.4374 45.1827 60.2221 44.7567C59.8979 44.1148 59.1455 43.4662 58.4537 43.2321C57.7624 42.9981 56.7728 43.0068 56.1121 43.2526ZM57.9692 44.7791C58.1097 44.8448 58.335 45.0295 58.47 45.1895C58.6721 45.4292 58.7154 45.5606 58.7154 45.9347C58.7154 46.3087 58.6721 46.4401 58.47 46.6798C57.9261 47.3246 56.9756 47.4244 56.3536 46.9019C55.6087 46.276 55.697 45.3625 56.5528 44.8409C56.9063 44.6254 57.5779 44.5961 57.9692 44.7791ZM41.1851 51.4849C37.6945 51.9931 34.9229 54.2593 34.0731 57.2998C33.8195 58.2069 33.7976 60.0119 34.0297 60.8549C34.57 62.8164 35.8574 64.4901 37.6654 65.5812C39.1159 66.4565 40.5253 66.8385 42.3305 66.8455C44.0363 66.8521 45.332 66.5334 46.8157 65.7424C47.5555 65.3481 48.7699 64.3294 49.2973 63.6611C52.2506 59.9178 50.9664 54.6551 46.5551 52.4238C45.2564 51.767 44.2063 51.5126 42.6389 51.4749C41.9847 51.4593 41.3305 51.4638 41.1851 51.4849ZM44.2689 53.2653C45.4546 53.6033 46.2204 54.028 47.1373 54.8561C47.8587 55.5076 48.038 55.7251 48.3883 56.3736C48.866 57.2577 49.0614 57.8948 49.1306 58.7931C49.3362 61.4631 47.4056 64.0699 44.5785 64.9395C42.0607 65.7141 39.4554 65.1536 37.5728 63.4327C36.1474 62.1298 35.5054 60.6093 35.6184 58.804C35.7921 56.0278 37.9274 53.784 41.0089 53.1398C41.7947 52.9755 43.48 53.0404 44.2689 53.2653ZM41.886 54.9755C41.7377 55.1096 41.6697 55.2599 41.6697 55.4536C41.6697 55.6354 41.628 55.7361 41.5526 55.7361C41.2776 55.7361 40.6329 56.2267 40.4005 56.6131C40.0409 57.2106 40.0049 57.7572 40.2882 58.317C40.481 58.6979 40.6018 58.8152 41.0924 59.0981L41.6697 59.4309V60.532C41.6697 61.7493 41.6735 61.7428 41.1181 61.4735C40.9372 61.3859 40.6702 61.3142 40.5247 61.3142C39.9872 61.3142 39.7021 61.9252 40.0802 62.2671C40.313 62.4777 40.8888 62.7367 41.293 62.8127C41.5927 62.869 41.6292 62.9041 41.6797 63.1853C41.7813 63.7503 42.3606 63.9637 42.775 63.5888C42.9222 63.4557 42.9913 63.3043 42.9913 63.1144C42.9913 62.8622 43.0277 62.8211 43.3736 62.6827C44.1564 62.3695 44.7392 61.6263 44.8171 60.8418C44.9083 59.9224 44.4605 59.2071 43.5411 58.804L42.9958 58.565L42.9935 57.7482C42.9923 57.299 43.0211 56.9325 43.0574 56.934C43.0937 56.9353 43.2005 56.9891 43.2945 57.0535C43.6525 57.2984 44.1331 57.1647 44.3139 56.77C44.4134 56.5528 44.4065 56.4969 44.2571 56.3087C44.1637 56.191 43.8412 55.9871 43.5405 55.8556C43.0644 55.6475 42.9935 55.5877 42.9925 55.3938C42.991 55.1117 42.6333 54.7799 42.3305 54.7799C42.205 54.7799 42.005 54.8679 41.886 54.9755ZM62.0223 54.8361C61.7249 54.9345 61.4912 55.2281 61.3134 55.7268C60.4637 58.1103 58.4269 60.2538 55.8991 61.425C55.5644 61.5801 55.2779 61.6955 55.2624 61.6815C55.247 61.6675 55.334 61.4626 55.4556 61.2261C55.5773 60.9897 55.6773 60.659 55.6778 60.4912C55.6796 59.8471 54.8419 59.4828 54.3176 59.8997C54.0022 60.1505 52.7711 62.6693 52.7711 63.0638C52.7711 63.4717 52.9342 63.6019 54.5474 64.4819C56.0412 65.297 56.2783 65.3556 56.7195 65.0198C57.2899 64.5857 57.1331 64.0465 56.3013 63.582L55.7603 63.2801L56.7343 62.8221C59.149 61.6864 61.127 59.8656 62.3203 57.6802C62.7712 56.8544 63.1677 55.8884 63.1677 55.6155C63.1677 55.0647 62.5672 54.656 62.0223 54.8361ZM41.6697 57.5388C41.6697 57.928 41.6524 57.9738 41.5376 57.8876C41.3845 57.7728 41.3698 57.5842 41.4913 57.2952C41.6225 56.983 41.6697 57.0475 41.6697 57.5388ZM43.3911 60.2043C43.5644 60.5074 43.5533 60.822 43.3578 61.1518C43.0644 61.6468 42.9913 61.5539 42.9913 60.6858C42.9913 59.998 43.0104 59.8914 43.1267 59.9318C43.2012 59.9577 43.3201 60.0802 43.3911 60.2043ZM33.8208 68.6282C33.5763 68.8257 33.5238 68.925 33.5238 69.1905C33.5238 69.7892 34.1973 70.1611 34.7841 69.8867C35.5457 69.5305 35.3374 68.5363 34.4794 68.4322C34.1655 68.3942 34.0782 68.4201 33.8208 68.6282Z" fill="white"/>
</svg>
