<svg width="100" height="100" viewBox="0 0 100 100" fill="none" xmlns="http://www.w3.org/2000/svg">
<circle cx="50" cy="50" r="50" fill="#FFA012"/>
<path fill-rule="evenodd" clip-rule="evenodd" d="M43.8732 26.1438C42.2827 26.8015 42.2965 28.9633 43.8953 29.6004C44.1494 29.7017 44.5878 29.7455 45.3445 29.7455H46.4294V31.4737V33.2019L45.864 33.2637C40.4414 33.856 35.1642 36.6226 31.7537 40.6612C29.3346 43.5256 27.8627 46.6433 27.187 50.3341C26.9377 51.6952 26.9377 55.3779 27.187 56.7894C28.3348 63.2898 32.5684 68.8367 38.6162 71.7645C44.6732 74.6967 51.7178 74.7467 57.788 71.9007C60.0721 70.8298 61.5885 69.806 63.3835 68.123C66.7655 64.952 68.8733 60.9816 69.5936 56.4257C69.7913 55.175 69.8216 52.2993 69.6499 51.0803C69.131 47.3982 67.7406 44.1288 65.4698 41.2516C65.1662 40.8669 64.9178 40.515 64.9178 40.4695C64.9178 40.4239 65.4686 39.8626 66.142 39.2221L67.366 38.0577L68.1654 38.7859C69.0328 39.576 69.4154 39.7799 70.0316 39.7799C71.4768 39.7799 72.4225 38.3593 71.8109 37.1072C71.6908 36.8613 70.6156 35.7749 68.6907 33.9543C65.8844 31.2999 65.7313 31.1714 65.2492 31.0639C64.0056 30.7866 62.8581 31.6279 62.8542 32.8198C62.8519 33.5283 63.0494 33.8909 63.8819 34.7067L64.6172 35.4272L63.355 36.6282L62.0927 37.8292L61.1653 37.173C58.621 35.3733 55.7301 34.1362 52.7234 33.5606C52.0472 33.4312 51.2397 33.2975 50.9286 33.2636L50.3631 33.2019V31.4737V29.7455L51.4203 29.7435C52.6443 29.7411 53.0784 29.6036 53.5793 29.0595C53.8671 28.7469 54.0991 28.2161 54.0991 27.87C54.0991 27.2352 53.5381 26.458 52.8718 26.1693C52.5102 26.0127 52.1345 25.9986 48.3471 26.0001C44.8773 26.0015 44.1618 26.0245 43.8732 26.1438ZM50.1457 36.9721C55.3937 37.5181 59.9776 40.1474 62.8687 44.2703C66.8575 49.9587 66.8569 57.1964 62.8671 62.858C58.8615 68.5421 51.6989 71.3106 44.7084 69.8769C42.5564 69.4356 39.9895 68.3627 38.2757 67.1882C33.5917 63.9784 30.8913 58.9967 30.8913 53.5655C30.8913 49.0408 32.6262 45.061 36.0026 41.8401C37.5937 40.3221 38.7191 39.5388 40.5781 38.6554C43.6319 37.2042 46.8812 36.6325 50.1457 36.9721ZM47.7628 40.7638C47.2083 40.9523 46.9117 41.1905 46.6545 41.6542L46.4294 42.0602V48.051C46.4294 53.7553 46.4384 54.0585 46.6166 54.3898C46.8531 54.8297 47.1687 55.1111 47.6324 55.2959C48.1783 55.5134 56.7777 55.513 57.324 55.2954C58.1128 54.9811 58.5573 54.3577 58.5573 53.5655C58.5573 52.9935 58.3904 52.6159 57.9688 52.2341C57.387 51.707 57.2509 51.6899 53.6608 51.6899H50.3631V47.0893C50.3631 43.8931 50.3281 42.356 50.2483 42.054C50.0929 41.4653 49.4808 40.8816 48.8635 40.7335C48.3018 40.5985 48.2448 40.6001 47.7628 40.7638Z" fill="white"/>
</svg>
