<svg width="100" height="100" viewBox="0 0 100 100" fill="none" xmlns="http://www.w3.org/2000/svg">
<circle cx="50" cy="50" r="50" fill="#FFA012"/>
<path fill-rule="evenodd" clip-rule="evenodd" d="M50.357 27.6127C48.5426 28.1039 33.248 32.5776 32.8954 32.7203C31.6878 33.2089 30.9222 34.446 31.1662 35.514C31.2208 35.7531 31.4196 36.2788 31.6078 36.6822C31.796 37.0856 31.95 37.4421 31.95 37.4744C31.95 37.5066 31.6572 37.5771 31.2992 37.631C29.9964 37.8273 28.5597 38.6066 27.8317 39.5121C27.6573 39.7289 27.4002 40.1411 27.2602 40.4282L27.0056 40.9501L26.9792 52.2387C26.9534 63.29 26.9569 63.5403 27.1478 64.1428C27.4039 64.9513 27.8269 65.531 28.6142 66.1526C29.3555 66.7378 30.2344 67.1183 31.2366 67.2878C32.2326 67.4563 68.873 67.4563 69.869 67.2878C71.3075 67.0445 72.73 66.2159 73.4475 65.2033C74.0767 64.3152 74.1489 63.8686 74.1489 60.8651V58.1816L74.3692 58.1808C74.7564 58.1795 75.5961 57.812 76.0623 57.4399C76.3109 57.2415 76.632 56.8789 76.7758 56.6339L77.0372 56.1888V52.3987V48.6085L76.7826 48.1751C76.3296 47.4044 75.59 46.8874 74.6105 46.6568L74.1979 46.5597L74.1458 43.7549C74.0942 40.9789 74.0911 40.9447 73.8423 40.4282C73.1255 38.9403 71.5417 37.8723 69.6726 37.6164L68.9726 37.5206L68.9417 35.7558L68.9108 33.9909L68.5889 33.4696C68.233 32.893 67.6618 32.4388 66.9248 32.1464L66.463 31.9632L61.2763 31.9241L56.0896 31.885L55.4408 30.4577C54.6686 28.7584 54.5483 28.567 53.9967 28.1594C53.4094 27.7253 52.6627 27.4691 51.854 27.4243C51.3002 27.3936 51.0502 27.4251 50.357 27.6127ZM51.8952 29.7985C52.0332 29.8685 52.1947 30.164 52.6465 31.1729L52.9736 31.9034L52.1657 31.9436C51.4994 31.9769 51.2525 32.0287 50.7576 32.2392C50.0389 32.5449 49.5443 32.9617 49.1953 33.5558C48.944 33.9838 48.9365 34.0406 48.9062 35.7729L48.8751 37.5507L42.0036 37.5503L35.1321 37.5498L34.5689 36.3248C34.068 35.2351 34.0205 35.082 34.1392 34.9382C34.2375 34.819 36.5342 34.1166 42.8778 32.2658C47.6106 30.8849 51.549 29.7513 51.6298 29.7467C51.7106 29.7422 51.83 29.7654 51.8952 29.7985ZM65.8686 34.3913C65.9979 34.4945 66.0224 34.7563 66.0224 36.0324V37.5507H58.924H51.8256V36.0324C51.8256 34.7563 51.8502 34.4945 51.9794 34.3913C52.1164 34.282 52.8812 34.2685 58.924 34.2685C64.9669 34.2685 65.7317 34.282 65.8686 34.3913ZM69.5719 40.0066C70.1134 40.1609 70.5846 40.4779 70.8913 40.8942L71.1627 41.2627L71.192 43.8947L71.2212 46.5268L67.8141 46.5528L64.4069 46.5788L63.6237 46.7975C61.14 47.4912 59.3856 48.9623 58.7147 50.9139C58.4965 51.5489 58.4714 53.1022 58.6695 53.7215C59.211 55.4152 60.6511 56.8592 62.5337 57.5962C64.0566 58.1923 64.1746 58.2065 67.9072 58.2406L71.2116 58.2708V60.8302C71.2116 63.7113 71.1785 63.8876 70.5385 64.4139C70.3387 64.5783 70.0008 64.7818 69.7877 64.8661C69.4069 65.0169 69.0823 65.0194 50.5528 65.0194C32.0233 65.0194 31.6987 65.0169 31.3179 64.8661C31.1048 64.7818 30.766 64.5775 30.565 64.4122C29.8446 63.8197 29.8884 64.6361 29.9171 52.3167L29.9429 41.2627L30.2143 40.8942C30.521 40.4779 30.9922 40.1609 31.5337 40.0066C32.0791 39.8513 69.0265 39.8513 69.5719 40.0066ZM73.9951 49.0048C74.13 49.1126 74.1489 49.5274 74.1489 52.3786C74.1489 55.2939 74.1322 55.6442 73.9869 55.7724C73.8346 55.9066 73.5687 55.9153 69.6015 55.9153C65.0301 55.9153 64.7886 55.8972 63.7526 55.4782C62.7136 55.058 61.7845 54.0707 61.5309 53.1177C61.1423 51.6569 61.9718 50.1473 63.5887 49.3734C64.5601 48.9084 64.7498 48.8928 69.5158 48.8872C73.323 48.8827 73.8596 48.8967 73.9951 49.0048ZM65.1626 51.3564C64.106 51.7721 64.1224 53.002 65.1902 53.4146C65.4127 53.5005 65.6991 53.5709 65.8266 53.5709C66.2632 53.5709 66.856 53.2746 67.0931 52.938C67.7879 51.9513 66.4457 50.8517 65.1626 51.3564Z" fill="white"/>
</svg>
