<svg width="158" height="10" viewBox="0 0 158 10" fill="none" xmlns="http://www.w3.org/2000/svg">
<path d="M0.162 7L2.961 0.655H3.609L6.453 7H5.679L4.887 5.191L5.22 5.38H1.341L1.701 5.191L0.927 7H0.162ZM3.276 1.51L1.818 4.93L1.602 4.768H4.95L4.788 4.93L3.294 1.51H3.276ZM7.23916 7V0.375999H7.96816V7H7.23916ZM9.2937 7V0.375999H10.0227V7H9.2937ZM13.5869 7V3.571C13.5869 3.391 13.5809 3.208 13.5689 3.022C13.5629 2.836 13.5509 2.656 13.5329 2.482H14.2349L14.3249 3.58L14.1989 3.589C14.2589 3.319 14.3639 3.097 14.5139 2.923C14.6639 2.749 14.8409 2.62 15.0449 2.536C15.2489 2.446 15.4619 2.401 15.6839 2.401C15.7739 2.401 15.8519 2.404 15.9179 2.41C15.9899 2.416 16.0559 2.431 16.1159 2.455L16.1069 3.103C16.0169 3.073 15.9329 3.055 15.8549 3.049C15.7829 3.037 15.6989 3.031 15.6029 3.031C15.3389 3.031 15.1079 3.094 14.9099 3.22C14.7179 3.346 14.5709 3.508 14.4689 3.706C14.3729 3.904 14.3249 4.114 14.3249 4.336V7H13.5869ZM16.7844 7V2.482H17.5134V7H16.7844ZM16.6944 1.456V0.637H17.5944V1.456H16.6944ZM20.828 9.007C20.438 9.007 20.078 8.959 19.748 8.863C19.418 8.767 19.121 8.62 18.857 8.422L19.073 7.873C19.259 8.005 19.442 8.11 19.622 8.188C19.802 8.266 19.988 8.323 20.18 8.359C20.372 8.401 20.576 8.422 20.792 8.422C21.236 8.422 21.572 8.305 21.8 8.071C22.028 7.837 22.142 7.504 22.142 7.072V5.749H22.232C22.136 6.103 21.938 6.385 21.638 6.595C21.338 6.799 20.987 6.901 20.585 6.901C20.171 6.901 19.811 6.811 19.505 6.631C19.205 6.445 18.971 6.184 18.803 5.848C18.641 5.506 18.56 5.104 18.56 4.642C18.56 4.186 18.641 3.79 18.803 3.454C18.971 3.118 19.205 2.86 19.505 2.68C19.811 2.494 20.171 2.401 20.585 2.401C20.993 2.401 21.344 2.503 21.638 2.707C21.938 2.911 22.136 3.193 22.232 3.553L22.142 3.463L22.223 2.482H22.934C22.91 2.656 22.892 2.833 22.88 3.013C22.868 3.187 22.862 3.358 22.862 3.526V6.973C22.862 7.645 22.688 8.152 22.34 8.494C21.998 8.836 21.494 9.007 20.828 9.007ZM20.72 6.307C21.158 6.307 21.503 6.163 21.755 5.875C22.007 5.581 22.133 5.17 22.133 4.642C22.133 4.114 22.007 3.706 21.755 3.418C21.503 3.13 21.158 2.986 20.72 2.986C20.288 2.986 19.943 3.13 19.685 3.418C19.427 3.706 19.298 4.114 19.298 4.642C19.298 5.17 19.427 5.581 19.685 5.875C19.943 6.163 20.288 6.307 20.72 6.307ZM24.1718 7V0.375999H24.9008V3.481H24.7838C24.9098 3.127 25.1198 2.86 25.4138 2.68C25.7138 2.494 26.0588 2.401 26.4488 2.401C26.9888 2.401 27.3908 2.548 27.6548 2.842C27.9188 3.13 28.0508 3.568 28.0508 4.156V7H27.3218V4.201C27.3218 3.781 27.2378 3.475 27.0698 3.283C26.9078 3.091 26.6438 2.995 26.2778 2.995C25.8578 2.995 25.5218 3.124 25.2698 3.382C25.0238 3.64 24.9008 3.979 24.9008 4.399V7H24.1718ZM30.9573 7.081C30.5133 7.081 30.1743 6.955 29.9403 6.703C29.7063 6.445 29.5893 6.058 29.5893 5.542V3.049H28.7073V2.482H29.5893V1.249L30.3183 1.042V2.482H31.6143V3.049H30.3183V5.461C30.3183 5.821 30.3783 6.079 30.4983 6.235C30.6243 6.385 30.8103 6.46 31.0563 6.46C31.1703 6.46 31.2723 6.451 31.3623 6.433C31.4523 6.409 31.5333 6.382 31.6053 6.352V6.964C31.5213 7 31.4193 7.027 31.2993 7.045C31.1853 7.069 31.0713 7.081 30.9573 7.081ZM34.6504 7V3.571C34.6504 3.391 34.6444 3.208 34.6324 3.022C34.6264 2.836 34.6144 2.656 34.5964 2.482H35.2984L35.3884 3.58L35.2624 3.589C35.3224 3.319 35.4274 3.097 35.5774 2.923C35.7274 2.749 35.9044 2.62 36.1084 2.536C36.3124 2.446 36.5254 2.401 36.7474 2.401C36.8374 2.401 36.9154 2.404 36.9814 2.41C37.0534 2.416 37.1194 2.431 37.1794 2.455L37.1704 3.103C37.0804 3.073 36.9964 3.055 36.9184 3.049C36.8464 3.037 36.7624 3.031 36.6664 3.031C36.4024 3.031 36.1714 3.094 35.9734 3.22C35.7814 3.346 35.6344 3.508 35.5324 3.706C35.4364 3.904 35.3884 4.114 35.3884 4.336V7H34.6504ZM39.8022 7.081C39.0942 7.081 38.5362 6.877 38.1282 6.469C37.7202 6.055 37.5162 5.482 37.5162 4.75C37.5162 4.276 37.6062 3.865 37.7862 3.517C37.9662 3.163 38.2182 2.89 38.5422 2.698C38.8662 2.5 39.2382 2.401 39.6582 2.401C40.0722 2.401 40.4202 2.488 40.7022 2.662C40.9842 2.836 41.2002 3.085 41.3502 3.409C41.5002 3.727 41.5752 4.105 41.5752 4.543V4.813H38.0742V4.354H41.0982L40.9452 4.471C40.9452 3.991 40.8372 3.616 40.6212 3.346C40.4052 3.076 40.0842 2.941 39.6582 2.941C39.2082 2.941 38.8572 3.1 38.6052 3.418C38.3532 3.73 38.2272 4.153 38.2272 4.687V4.768C38.2272 5.332 38.3652 5.761 38.6412 6.055C38.9232 6.343 39.3162 6.487 39.8202 6.487C40.0902 6.487 40.3422 6.448 40.5762 6.37C40.8162 6.286 41.0442 6.151 41.2602 5.965L41.5122 6.478C41.3142 6.67 41.0622 6.82 40.7562 6.928C40.4562 7.03 40.1382 7.081 39.8022 7.081ZM44.1037 7.081C43.7437 7.081 43.4077 7.033 43.0957 6.937C42.7837 6.835 42.5257 6.694 42.3217 6.514L42.5737 6.001C42.7957 6.175 43.0357 6.304 43.2937 6.388C43.5577 6.472 43.8307 6.514 44.1127 6.514C44.4727 6.514 44.7427 6.451 44.9227 6.325C45.1087 6.193 45.2017 6.013 45.2017 5.785C45.2017 5.611 45.1417 5.473 45.0217 5.371C44.9077 5.263 44.7187 5.179 44.4547 5.119L43.6177 4.948C43.2337 4.864 42.9457 4.723 42.7537 4.525C42.5617 4.321 42.4657 4.063 42.4657 3.751C42.4657 3.487 42.5347 3.256 42.6727 3.058C42.8107 2.854 43.0117 2.695 43.2757 2.581C43.5397 2.461 43.8487 2.401 44.2027 2.401C44.5327 2.401 44.8357 2.452 45.1117 2.554C45.3937 2.65 45.6277 2.791 45.8137 2.977L45.5527 3.481C45.3727 3.307 45.1657 3.178 44.9317 3.094C44.7037 3.004 44.4667 2.959 44.2207 2.959C43.8667 2.959 43.5997 3.031 43.4197 3.175C43.2457 3.313 43.1587 3.496 43.1587 3.724C43.1587 3.898 43.2127 4.042 43.3207 4.156C43.4347 4.264 43.6087 4.345 43.8427 4.399L44.6797 4.57C45.0877 4.66 45.3907 4.801 45.5887 4.993C45.7927 5.179 45.8947 5.431 45.8947 5.749C45.8947 6.019 45.8197 6.256 45.6697 6.46C45.5197 6.658 45.3097 6.811 45.0397 6.919C44.7757 7.027 44.4637 7.081 44.1037 7.081ZM48.9826 7.081C48.2746 7.081 47.7166 6.877 47.3086 6.469C46.9006 6.055 46.6966 5.482 46.6966 4.75C46.6966 4.276 46.7866 3.865 46.9666 3.517C47.1466 3.163 47.3986 2.89 47.7226 2.698C48.0466 2.5 48.4186 2.401 48.8386 2.401C49.2526 2.401 49.6006 2.488 49.8826 2.662C50.1646 2.836 50.3806 3.085 50.5306 3.409C50.6806 3.727 50.7556 4.105 50.7556 4.543V4.813H47.2546V4.354H50.2786L50.1256 4.471C50.1256 3.991 50.0176 3.616 49.8016 3.346C49.5856 3.076 49.2646 2.941 48.8386 2.941C48.3886 2.941 48.0376 3.1 47.7856 3.418C47.5336 3.73 47.4076 4.153 47.4076 4.687V4.768C47.4076 5.332 47.5456 5.761 47.8216 6.055C48.1036 6.343 48.4966 6.487 49.0006 6.487C49.2706 6.487 49.5226 6.448 49.7566 6.37C49.9966 6.286 50.2246 6.151 50.4406 5.965L50.6926 6.478C50.4946 6.67 50.2426 6.82 49.9366 6.928C49.6366 7.03 49.3186 7.081 48.9826 7.081ZM51.7631 7V3.571C51.7631 3.391 51.7571 3.208 51.7451 3.022C51.7391 2.836 51.7271 2.656 51.7091 2.482H52.4111L52.5011 3.58L52.3751 3.589C52.4351 3.319 52.5401 3.097 52.6901 2.923C52.8401 2.749 53.0171 2.62 53.2211 2.536C53.4251 2.446 53.6381 2.401 53.8601 2.401C53.9501 2.401 54.0281 2.404 54.0941 2.41C54.1661 2.416 54.2321 2.431 54.2921 2.455L54.2831 3.103C54.1931 3.073 54.1091 3.055 54.0311 3.049C53.9591 3.037 53.8751 3.031 53.7791 3.031C53.5151 3.031 53.2841 3.094 53.0861 3.22C52.8941 3.346 52.7471 3.508 52.6451 3.706C52.5491 3.904 52.5011 4.114 52.5011 4.336V7H51.7631ZM56.5651 7L54.6301 2.482H55.4221L57.0421 6.46H56.7991L58.4371 2.482H59.1931L57.2581 7H56.5651ZM61.8698 7.081C61.1618 7.081 60.6038 6.877 60.1958 6.469C59.7878 6.055 59.5838 5.482 59.5838 4.75C59.5838 4.276 59.6738 3.865 59.8538 3.517C60.0338 3.163 60.2858 2.89 60.6098 2.698C60.9338 2.5 61.3058 2.401 61.7258 2.401C62.1398 2.401 62.4878 2.488 62.7698 2.662C63.0518 2.836 63.2678 3.085 63.4178 3.409C63.5678 3.727 63.6428 4.105 63.6428 4.543V4.813H60.1418V4.354H63.1658L63.0128 4.471C63.0128 3.991 62.9048 3.616 62.6888 3.346C62.4728 3.076 62.1518 2.941 61.7258 2.941C61.2758 2.941 60.9248 3.1 60.6728 3.418C60.4208 3.73 60.2948 4.153 60.2948 4.687V4.768C60.2948 5.332 60.4328 5.761 60.7088 6.055C60.9908 6.343 61.3838 6.487 61.8878 6.487C62.1578 6.487 62.4098 6.448 62.6438 6.37C62.8838 6.286 63.1118 6.151 63.3278 5.965L63.5798 6.478C63.3818 6.67 63.1298 6.82 62.8238 6.928C62.5238 7.03 62.2058 7.081 61.8698 7.081ZM66.3783 7.081C65.9823 7.081 65.6343 6.988 65.3343 6.802C65.0343 6.61 64.8003 6.34 64.6323 5.992C64.4703 5.644 64.3893 5.227 64.3893 4.741C64.3893 4.249 64.4703 3.829 64.6323 3.481C64.8003 3.133 65.0343 2.866 65.3343 2.68C65.6343 2.494 65.9823 2.401 66.3783 2.401C66.7863 2.401 67.1373 2.503 67.4313 2.707C67.7313 2.911 67.9323 3.187 68.0343 3.535H67.9263V0.375999H68.6553V7H67.9353V5.92H68.0343C67.9383 6.28 67.7403 6.565 67.4403 6.775C67.1403 6.979 66.7863 7.081 66.3783 7.081ZM66.5313 6.487C66.9573 6.487 67.2993 6.34 67.5573 6.046C67.8153 5.746 67.9443 5.311 67.9443 4.741C67.9443 4.165 67.8153 3.73 67.5573 3.436C67.2993 3.136 66.9573 2.986 66.5313 2.986C66.1053 2.986 65.7633 3.136 65.5053 3.436C65.2533 3.73 65.1273 4.165 65.1273 4.741C65.1273 5.311 65.2533 5.746 65.5053 6.046C65.7633 6.34 66.1053 6.487 66.5313 6.487ZM72.3125 7V0.655H73.0595V6.352H76.2635V7H72.3125ZM79.0088 7.081C78.3008 7.081 77.7428 6.877 77.3348 6.469C76.9268 6.055 76.7228 5.482 76.7228 4.75C76.7228 4.276 76.8128 3.865 76.9928 3.517C77.1728 3.163 77.4248 2.89 77.7488 2.698C78.0728 2.5 78.4448 2.401 78.8648 2.401C79.2788 2.401 79.6268 2.488 79.9088 2.662C80.1908 2.836 80.4068 3.085 80.5568 3.409C80.7068 3.727 80.7818 4.105 80.7818 4.543V4.813H77.2808V4.354H80.3048L80.1518 4.471C80.1518 3.991 80.0438 3.616 79.8278 3.346C79.6118 3.076 79.2908 2.941 78.8648 2.941C78.4148 2.941 78.0638 3.1 77.8118 3.418C77.5598 3.73 77.4338 4.153 77.4338 4.687V4.768C77.4338 5.332 77.5718 5.761 77.8478 6.055C78.1298 6.343 78.5228 6.487 79.0268 6.487C79.2968 6.487 79.5488 6.448 79.7828 6.37C80.0228 6.286 80.2508 6.151 80.4668 5.965L80.7188 6.478C80.5208 6.67 80.2688 6.82 79.9628 6.928C79.6628 7.03 79.3448 7.081 79.0088 7.081ZM83.0866 7L81.1516 2.482H81.9436L83.5636 6.46H83.3206L84.9586 2.482H85.7146L83.7796 7H83.0866ZM86.4458 7V2.482H87.1748V7H86.4458ZM86.3558 1.456V0.637H87.2558V1.456H86.3558ZM90.1024 7.081C89.6584 7.081 89.3194 6.955 89.0854 6.703C88.8514 6.445 88.7344 6.058 88.7344 5.542V3.049H87.8524V2.482H88.7344V1.249L89.4634 1.042V2.482H90.7594V3.049H89.4634V5.461C89.4634 5.821 89.5234 6.079 89.6434 6.235C89.7694 6.385 89.9554 6.46 90.2014 6.46C90.3154 6.46 90.4174 6.451 90.5074 6.433C90.5974 6.409 90.6784 6.382 90.7504 6.352V6.964C90.6664 7 90.5644 7.027 90.4444 7.045C90.3304 7.069 90.2164 7.081 90.1024 7.081ZM93.2759 7.081C92.8739 7.081 92.5229 6.988 92.2229 6.802C91.9229 6.61 91.6889 6.34 91.5209 5.992C91.3589 5.644 91.2779 5.227 91.2779 4.741C91.2779 4.249 91.3589 3.829 91.5209 3.481C91.6889 3.133 91.9229 2.866 92.2229 2.68C92.5229 2.494 92.8739 2.401 93.2759 2.401C93.6839 2.401 94.0349 2.506 94.3289 2.716C94.6289 2.92 94.8269 3.199 94.9229 3.553H94.8149L94.9139 2.482H95.6159C95.5979 2.656 95.5799 2.833 95.5619 3.013C95.5499 3.187 95.5439 3.358 95.5439 3.526V7H94.8149V5.938H94.9139C94.8179 6.292 94.6199 6.571 94.3199 6.775C94.0199 6.979 93.6719 7.081 93.2759 7.081ZM93.4199 6.487C93.8519 6.487 94.1939 6.34 94.4459 6.046C94.6979 5.746 94.8239 5.311 94.8239 4.741C94.8239 4.165 94.6979 3.73 94.4459 3.436C94.1939 3.136 93.8519 2.986 93.4199 2.986C92.9939 2.986 92.6519 3.136 92.3939 3.436C92.1419 3.73 92.0159 4.165 92.0159 4.741C92.0159 5.311 92.1419 5.746 92.3939 6.046C92.6519 6.34 92.9939 6.487 93.4199 6.487ZM98.4653 7.081C98.0213 7.081 97.6823 6.955 97.4483 6.703C97.2143 6.445 97.0973 6.058 97.0973 5.542V3.049H96.2153V2.482H97.0973V1.249L97.8263 1.042V2.482H99.1223V3.049H97.8263V5.461C97.8263 5.821 97.8863 6.079 98.0063 6.235C98.1323 6.385 98.3183 6.46 98.5643 6.46C98.6783 6.46 98.7803 6.451 98.8703 6.433C98.9603 6.409 99.0413 6.382 99.1133 6.352V6.964C99.0293 7 98.9273 7.027 98.8073 7.045C98.6933 7.069 98.5793 7.081 98.4653 7.081ZM101.883 7.081C101.175 7.081 100.617 6.877 100.209 6.469C99.8009 6.055 99.5969 5.482 99.5969 4.75C99.5969 4.276 99.6869 3.865 99.8669 3.517C100.047 3.163 100.299 2.89 100.623 2.698C100.947 2.5 101.319 2.401 101.739 2.401C102.153 2.401 102.501 2.488 102.783 2.662C103.065 2.836 103.281 3.085 103.431 3.409C103.581 3.727 103.656 4.105 103.656 4.543V4.813H100.155V4.354H103.179L103.026 4.471C103.026 3.991 102.918 3.616 102.702 3.346C102.486 3.076 102.165 2.941 101.739 2.941C101.289 2.941 100.938 3.1 100.686 3.418C100.434 3.73 100.308 4.153 100.308 4.687V4.768C100.308 5.332 100.446 5.761 100.722 6.055C101.004 6.343 101.397 6.487 101.901 6.487C102.171 6.487 102.423 6.448 102.657 6.37C102.897 6.286 103.125 6.151 103.341 5.965L103.593 6.478C103.395 6.67 103.143 6.82 102.837 6.928C102.537 7.03 102.219 7.081 101.883 7.081ZM108.558 7V1.285H106.317V0.655H111.537V1.285H109.305V7H108.558ZM113.448 7.081C113.016 7.081 112.638 6.988 112.314 6.802C111.996 6.61 111.75 6.34 111.576 5.992C111.402 5.638 111.315 5.221 111.315 4.741C111.315 4.255 111.402 3.838 111.576 3.49C111.75 3.142 111.996 2.875 112.314 2.689C112.638 2.497 113.016 2.401 113.448 2.401C113.886 2.401 114.264 2.497 114.582 2.689C114.906 2.875 115.155 3.142 115.329 3.49C115.509 3.838 115.599 4.255 115.599 4.741C115.599 5.221 115.509 5.638 115.329 5.992C115.155 6.34 114.906 6.61 114.582 6.802C114.264 6.988 113.886 7.081 113.448 7.081ZM113.448 6.487C113.88 6.487 114.222 6.34 114.474 6.046C114.726 5.746 114.852 5.311 114.852 4.741C114.852 4.165 114.723 3.73 114.465 3.436C114.213 3.136 113.874 2.986 113.448 2.986C113.022 2.986 112.683 3.136 112.431 3.436C112.179 3.73 112.053 4.165 112.053 4.741C112.053 5.311 112.179 5.746 112.431 6.046C112.683 6.34 113.022 6.487 113.448 6.487ZM116.646 7V0.375999H117.375V4.489H117.393L119.49 2.482H120.408L117.933 4.84L117.951 4.471L120.642 7H119.697L117.393 4.876H117.375V7H116.646ZM123.08 7.081C122.372 7.081 121.814 6.877 121.406 6.469C120.998 6.055 120.794 5.482 120.794 4.75C120.794 4.276 120.884 3.865 121.064 3.517C121.244 3.163 121.496 2.89 121.82 2.698C122.144 2.5 122.516 2.401 122.936 2.401C123.35 2.401 123.698 2.488 123.98 2.662C124.262 2.836 124.478 3.085 124.628 3.409C124.778 3.727 124.853 4.105 124.853 4.543V4.813H121.352V4.354H124.376L124.223 4.471C124.223 3.991 124.115 3.616 123.899 3.346C123.683 3.076 123.362 2.941 122.936 2.941C122.486 2.941 122.135 3.1 121.883 3.418C121.631 3.73 121.505 4.153 121.505 4.687V4.768C121.505 5.332 121.643 5.761 121.919 6.055C122.201 6.343 122.594 6.487 123.098 6.487C123.368 6.487 123.62 6.448 123.854 6.37C124.094 6.286 124.322 6.151 124.538 5.965L124.79 6.478C124.592 6.67 124.34 6.82 124.034 6.928C123.734 7.03 123.416 7.081 123.08 7.081ZM125.879 7V3.526C125.879 3.358 125.87 3.187 125.852 3.013C125.84 2.833 125.825 2.656 125.807 2.482H126.509L126.599 3.472H126.491C126.623 3.124 126.833 2.86 127.121 2.68C127.415 2.494 127.754 2.401 128.138 2.401C128.672 2.401 129.074 2.545 129.344 2.833C129.62 3.115 129.758 3.562 129.758 4.174V7H129.029V4.219C129.029 3.793 128.942 3.484 128.768 3.292C128.6 3.094 128.336 2.995 127.976 2.995C127.556 2.995 127.223 3.124 126.977 3.382C126.731 3.64 126.608 3.985 126.608 4.417V7H125.879ZM132.565 7.081C132.205 7.081 131.869 7.033 131.557 6.937C131.245 6.835 130.987 6.694 130.783 6.514L131.035 6.001C131.257 6.175 131.497 6.304 131.755 6.388C132.019 6.472 132.292 6.514 132.574 6.514C132.934 6.514 133.204 6.451 133.384 6.325C133.57 6.193 133.663 6.013 133.663 5.785C133.663 5.611 133.603 5.473 133.483 5.371C133.369 5.263 133.18 5.179 132.916 5.119L132.079 4.948C131.695 4.864 131.407 4.723 131.215 4.525C131.023 4.321 130.927 4.063 130.927 3.751C130.927 3.487 130.996 3.256 131.134 3.058C131.272 2.854 131.473 2.695 131.737 2.581C132.001 2.461 132.31 2.401 132.664 2.401C132.994 2.401 133.297 2.452 133.573 2.554C133.855 2.65 134.089 2.791 134.275 2.977L134.014 3.481C133.834 3.307 133.627 3.178 133.393 3.094C133.165 3.004 132.928 2.959 132.682 2.959C132.328 2.959 132.061 3.031 131.881 3.175C131.707 3.313 131.62 3.496 131.62 3.724C131.62 3.898 131.674 4.042 131.782 4.156C131.896 4.264 132.07 4.345 132.304 4.399L133.141 4.57C133.549 4.66 133.852 4.801 134.05 4.993C134.254 5.179 134.356 5.431 134.356 5.749C134.356 6.019 134.281 6.256 134.131 6.46C133.981 6.658 133.771 6.811 133.501 6.919C133.237 7.027 132.925 7.081 132.565 7.081ZM137.757 7V6.442L140.007 4.093C140.301 3.787 140.52 3.496 140.664 3.22C140.814 2.938 140.889 2.647 140.889 2.347C140.889 1.981 140.775 1.705 140.547 1.519C140.319 1.327 139.989 1.231 139.557 1.231C139.221 1.231 138.909 1.291 138.621 1.411C138.339 1.525 138.066 1.708 137.802 1.96L137.532 1.375C137.772 1.135 138.078 0.943 138.45 0.799C138.822 0.649 139.215 0.574 139.629 0.574C140.271 0.574 140.766 0.724 141.114 1.024C141.462 1.318 141.636 1.738 141.636 2.284C141.636 2.686 141.537 3.07 141.339 3.436C141.147 3.796 140.865 4.168 140.493 4.552L138.504 6.568V6.361H141.906V7H137.757ZM144.989 7.081C144.269 7.081 143.717 6.802 143.333 6.244C142.949 5.686 142.757 4.879 142.757 3.823C142.757 2.761 142.949 1.954 143.333 1.402C143.717 0.85 144.269 0.574 144.989 0.574C145.715 0.574 146.267 0.85 146.645 1.402C147.029 1.954 147.221 2.758 147.221 3.814C147.221 4.876 147.029 5.686 146.645 6.244C146.261 6.802 145.709 7.081 144.989 7.081ZM144.989 6.433C145.493 6.433 145.868 6.22 146.114 5.794C146.36 5.368 146.483 4.708 146.483 3.814C146.483 2.914 146.36 2.257 146.114 1.843C145.868 1.423 145.493 1.213 144.989 1.213C144.491 1.213 144.116 1.423 143.864 1.843C143.618 2.263 143.495 2.92 143.495 3.814C143.495 4.708 143.618 5.368 143.864 5.794C144.116 6.22 144.491 6.433 144.989 6.433ZM148.37 7V6.442L150.62 4.093C150.914 3.787 151.133 3.496 151.277 3.22C151.427 2.938 151.502 2.647 151.502 2.347C151.502 1.981 151.388 1.705 151.16 1.519C150.932 1.327 150.602 1.231 150.17 1.231C149.834 1.231 149.522 1.291 149.234 1.411C148.952 1.525 148.679 1.708 148.415 1.96L148.145 1.375C148.385 1.135 148.691 0.943 149.063 0.799C149.435 0.649 149.828 0.574 150.242 0.574C150.884 0.574 151.379 0.724 151.727 1.024C152.075 1.318 152.249 1.738 152.249 2.284C152.249 2.686 152.15 3.07 151.952 3.436C151.76 3.796 151.478 4.168 151.106 4.552L149.117 6.568V6.361H152.519V7H148.37ZM153.676 7V6.442L155.926 4.093C156.22 3.787 156.439 3.496 156.583 3.22C156.733 2.938 156.808 2.647 156.808 2.347C156.808 1.981 156.694 1.705 156.466 1.519C156.238 1.327 155.908 1.231 155.476 1.231C155.14 1.231 154.828 1.291 154.54 1.411C154.258 1.525 153.985 1.708 153.721 1.96L153.451 1.375C153.691 1.135 153.997 0.943 154.369 0.799C154.741 0.649 155.134 0.574 155.548 0.574C156.19 0.574 156.685 0.724 157.033 1.024C157.381 1.318 157.555 1.738 157.555 2.284C157.555 2.686 157.456 3.07 157.258 3.436C157.066 3.796 156.784 4.168 156.412 4.552L154.423 6.568V6.361H157.825V7H153.676Z" fill="white"/>
</svg>
