<svg width="25" height="23" viewBox="0 0 25 23" fill="none" xmlns="http://www.w3.org/2000/svg">
<path d="M2.11877 9.54596C1.29035 9.54596 0.618774 10.2175 0.618774 11.046C0.618774 11.8744 1.29035 12.546 2.11877 12.546V9.54596ZM24.559 12.1066C25.1448 11.5208 25.1448 10.5711 24.559 9.9853L15.013 0.439358C14.4273 -0.146429 13.4775 -0.146429 12.8917 0.439358C12.3059 1.02514 12.3059 1.97489 12.8917 2.56068L21.377 11.046L12.8917 19.5312C12.3059 20.117 12.3059 21.0668 12.8917 21.6526C13.4775 22.2383 14.4273 22.2383 15.013 21.6526L24.559 12.1066ZM2.11877 12.546H23.4983V9.54596H2.11877V12.546Z" fill="#173D7F"/>
</svg>
