<svg width="25" height="24" viewBox="0 0 25 24" fill="none" xmlns="http://www.w3.org/2000/svg">
<path fill-rule="evenodd" clip-rule="evenodd" d="M11.5616 0.0223101C9.74739 0.187057 8.36835 0.552779 6.86125 1.26894C4.87777 2.21141 3.0386 3.81041 1.82899 5.64412C0.955712 6.96789 0.318611 8.67952 0.0613556 10.3929C-0.0204518 10.9377 -0.0204518 12.7667 0.0613556 13.3116C0.266241 14.6762 0.646917 15.8716 1.24167 17.0179C1.91456 18.3149 2.57367 19.1862 3.66181 20.2172C4.73807 21.2369 5.67203 21.8736 6.98961 22.486C7.90895 22.9133 8.50253 23.1212 9.43454 23.3427C11.8802 23.9239 14.333 23.8125 16.7223 23.0116C17.4466 22.7689 18.711 22.1685 19.361 21.7588C21.1457 20.6336 22.6206 19.08 23.5971 17.2965C24.4807 15.6829 24.9228 14.0819 24.9918 12.246C25.066 10.2701 24.6372 8.38964 23.7093 6.62199C23.1 5.46131 22.4218 4.55163 21.4694 3.61796C20.4134 2.58251 19.3775 1.86811 17.9918 1.21941C16.5434 0.541382 15.1938 0.179459 13.5909 0.0391276C13.0927 -0.00446813 11.9602 -0.013873 11.5616 0.0223101ZM15.8044 6.55542L15.8175 7.72157L14.9242 7.73681C13.5737 7.75993 13.5665 7.76688 13.5665 9.04783V9.86008H14.7156C15.3476 9.86008 15.8647 9.86629 15.8647 9.87388C15.8647 9.88148 15.8097 10.384 15.7425 10.9906C15.6752 11.5971 15.6202 12.1329 15.6202 12.1813C15.6202 12.2648 15.5691 12.2692 14.5933 12.2692H13.5665V15.6976V19.1259H12.0506H10.5348V15.6976V12.2692H9.82573H9.1167V11.0646V9.86008H9.82006H10.5234L10.5473 8.78292C10.5744 7.56349 10.6252 7.3022 10.9488 6.71873C11.3511 5.9934 12.0881 5.53335 13.0365 5.41563C13.207 5.39445 13.8965 5.37986 14.5689 5.3832L15.7914 5.38931L15.8044 6.55542Z" fill="white"/>
</svg>
