<svg width="25" height="24" viewBox="0 0 25 24" fill="none" xmlns="http://www.w3.org/2000/svg">
<path fill-rule="evenodd" clip-rule="evenodd" d="M5.89525 0.0120132C4.38245 0.166671 3.00022 0.804877 1.90752 1.85329C0.935902 2.7855 0.378862 3.77431 0.0876705 5.08375C0.00582187 5.45184 0 5.90208 0 11.8564C0 17.8107 0.00582187 18.261 0.0876705 18.629C0.379204 19.9399 0.93781 20.9308 1.90752 21.8574C2.89215 22.7982 3.96181 23.3464 5.3571 23.6254C5.7453 23.703 6.21991 23.7085 12.4999 23.7085C20.0124 23.7085 19.5164 23.7287 20.584 23.3788C21.5459 23.0636 22.2735 22.6271 23.0497 21.8999C24.0344 20.9772 24.6177 19.9527 24.9121 18.629C24.994 18.261 24.9998 17.8109 24.9998 11.8564C24.9998 4.78385 25.0197 5.25288 24.6777 4.26602C24.3519 3.3262 23.8653 2.59114 23.0684 1.83557C22.1007 0.918063 21.1307 0.410161 19.765 0.106042C19.329 0.00895164 19.2595 0.00793111 12.6956 0.00125124C9.04958 -0.0024598 5.98943 0.00236455 5.89525 0.0120132ZM17.3188 4.28518C18.8964 4.70522 20.0694 5.82563 20.486 7.31037L20.5967 7.70467V11.8564V16.0081L20.486 16.4024C20.0662 17.8986 18.8723 19.0306 17.2944 19.4287L16.8785 19.5336H12.4999C8.48564 19.5336 8.09347 19.5268 7.78716 19.4522C6.15787 19.0555 4.93978 17.9206 4.51376 16.4024L4.40309 16.0081V11.8564V7.70467L4.51376 7.31037C4.96131 5.71546 6.30973 4.52004 7.99083 4.2278C8.29733 4.17455 9.1485 4.16429 12.6467 4.17181C16.9208 4.18099 16.928 4.18113 17.3188 4.28518ZM8.05776 5.64143C7.52224 5.77447 7.14309 5.98493 6.72528 6.38104C6.30151 6.78285 6.08434 7.13874 5.94295 7.66274C5.85054 8.00536 5.84633 8.18878 5.84633 11.8564C5.84633 15.524 5.85054 15.7074 5.94295 16.0501C6.08434 16.5741 6.30151 16.9299 6.72528 17.3318C7.14906 17.7336 7.5244 17.9395 8.07703 18.0735C8.43838 18.1612 8.63182 18.1652 12.4999 18.1652C16.368 18.1652 16.5614 18.1612 16.9227 18.0735C17.4754 17.9395 17.8507 17.7336 18.2745 17.3318C18.6983 16.9299 18.9154 16.5741 19.0568 16.0501C19.1492 15.7074 19.1535 15.524 19.1535 11.8564C19.1535 8.18878 19.1492 8.00536 19.0568 7.66274C18.9154 7.13874 18.6983 6.78285 18.2745 6.38104C17.8507 5.97922 17.4754 5.77331 16.9227 5.63925C16.5609 5.55153 16.3728 5.54772 12.4798 5.55018C8.63916 5.55259 8.39508 5.55765 8.05776 5.64143ZM17.051 7.26459C17.2681 7.36961 17.4411 7.63685 17.4411 7.86703C17.4411 8.22 17.0795 8.56285 16.7073 8.56285C16.4645 8.56285 16.1827 8.39877 16.0719 8.19295C15.8855 7.84653 15.9945 7.48247 16.3449 7.28138C16.5792 7.14695 16.7971 7.14175 17.051 7.26459ZM13.2181 8.45008C13.9511 8.59365 14.5643 8.90946 15.089 9.41365C15.5691 9.87503 15.8781 10.3793 16.057 10.9936C16.17 11.3818 16.17 12.331 16.057 12.7192C15.6792 14.0165 14.5896 14.9941 13.2235 15.2616C10.6844 15.7589 8.38677 13.5806 8.90795 11.1702C9.31332 9.29555 11.2605 8.06668 13.2181 8.45008ZM11.9842 9.83365C11.5789 9.92698 11.2696 10.095 10.9553 10.3924C10.0868 11.2142 10.0868 12.5 10.9553 13.3197C11.8282 14.1436 13.1789 14.1441 14.0431 13.321C14.912 12.4933 14.9126 11.215 14.0445 10.3918C13.4861 9.86236 12.7386 9.65988 11.9842 9.83365Z" fill="white"/>
</svg>
