<svg width="81" height="17" viewBox="0 0 81 17" fill="none" xmlns="http://www.w3.org/2000/svg">
<path d="M0.462563 16V0.489999H3.30056V13.602H10.6046V16H0.462563ZM17.5937 16.22C15.731 16.22 14.2717 15.7067 13.2157 14.68C12.1597 13.6533 11.6317 12.2453 11.6317 10.456C11.6317 9.29733 11.859 8.28533 12.3137 7.42C12.7684 6.55467 13.399 5.88 14.2057 5.396C15.027 4.912 15.9804 4.67 17.0657 4.67C18.1364 4.67 19.031 4.89733 19.7497 5.352C20.4684 5.80667 21.011 6.44467 21.3777 7.266C21.759 8.08733 21.9497 9.048 21.9497 10.148V10.874H13.8537V9.422H19.9917L19.6177 9.73C19.6177 8.70333 19.3977 7.91867 18.9577 7.376C18.5324 6.83333 17.909 6.562 17.0877 6.562C16.1784 6.562 15.4744 6.88467 14.9757 7.53C14.4917 8.17533 14.2497 9.07733 14.2497 10.236V10.522C14.2497 11.7247 14.543 12.6267 15.1297 13.228C15.731 13.8147 16.5744 14.108 17.6597 14.108C18.2904 14.108 18.877 14.0273 19.4197 13.866C19.977 13.69 20.505 13.4113 21.0037 13.03L21.8177 14.878C21.2897 15.3033 20.659 15.6333 19.9257 15.868C19.1924 16.1027 18.415 16.22 17.5937 16.22ZM27.1425 16L22.3465 4.89H25.2725L28.7485 13.58H28.0665L31.6305 4.89H34.3805L29.5625 16H27.1425ZM35.6333 16V4.89H38.3833V16H35.6333ZM35.4793 2.8V0.115999H38.5373V2.8H35.4793ZM45.9017 16.22C44.5817 16.22 43.5843 15.8753 42.9097 15.186C42.235 14.4967 41.8977 13.4627 41.8977 12.084V6.958H39.7637V4.89H41.8977V2.052L44.6477 1.348V4.89H47.6177V6.958H44.6477V11.908C44.6477 12.6707 44.7943 13.206 45.0877 13.514C45.381 13.822 45.7843 13.976 46.2977 13.976C46.5763 13.976 46.811 13.954 47.0017 13.91C47.207 13.866 47.405 13.8073 47.5957 13.734V15.912C47.3463 16.0147 47.0677 16.088 46.7597 16.132C46.4663 16.1907 46.1803 16.22 45.9017 16.22ZM53.5556 16.22C52.5876 16.22 51.7369 15.9927 51.0036 15.538C50.2703 15.0687 49.6983 14.4013 49.2876 13.536C48.8769 12.6707 48.6716 11.6367 48.6716 10.434C48.6716 9.23133 48.8769 8.20467 49.2876 7.354C49.6983 6.48867 50.2703 5.82867 51.0036 5.374C51.7369 4.90467 52.5876 4.67 53.5556 4.67C54.4943 4.67 55.3156 4.90467 56.0196 5.374C56.7383 5.82867 57.2149 6.44467 57.4496 7.222H57.2076L57.4496 4.89H60.0896C60.0456 5.34467 60.0016 5.80667 59.9576 6.276C59.9283 6.74533 59.9136 7.20733 59.9136 7.662V16H57.1856L57.1636 13.712H57.4276C57.1929 14.4747 56.7163 15.0833 55.9976 15.538C55.2789 15.9927 54.4649 16.22 53.5556 16.22ZM54.3256 14.108C55.1909 14.108 55.8876 13.8073 56.4156 13.206C56.9436 12.59 57.2076 11.666 57.2076 10.434C57.2076 9.202 56.9436 8.28533 56.4156 7.684C55.8876 7.08267 55.1909 6.782 54.3256 6.782C53.4603 6.782 52.7636 7.08267 52.2356 7.684C51.7076 8.28533 51.4436 9.202 51.4436 10.434C51.4436 11.666 51.7003 12.59 52.2136 13.206C52.7416 13.8073 53.4456 14.108 54.3256 14.108ZM67.4402 16.22C66.1202 16.22 65.1229 15.8753 64.4482 15.186C63.7735 14.4967 63.4362 13.4627 63.4362 12.084V6.958H61.3022V4.89H63.4362V2.052L66.1862 1.348V4.89H69.1562V6.958H66.1862V11.908C66.1862 12.6707 66.3329 13.206 66.6262 13.514C66.9195 13.822 67.3229 13.976 67.8362 13.976C68.1149 13.976 68.3495 13.954 68.5402 13.91C68.7455 13.866 68.9435 13.8073 69.1342 13.734V15.912C68.8849 16.0147 68.6062 16.088 68.2982 16.132C68.0049 16.1907 67.7189 16.22 67.4402 16.22ZM76.0647 16.22C74.202 16.22 72.7427 15.7067 71.6867 14.68C70.6307 13.6533 70.1027 12.2453 70.1027 10.456C70.1027 9.29733 70.33 8.28533 70.7847 7.42C71.2394 6.55467 71.87 5.88 72.6767 5.396C73.498 4.912 74.4514 4.67 75.5367 4.67C76.6074 4.67 77.502 4.89733 78.2207 5.352C78.9394 5.80667 79.482 6.44467 79.8487 7.266C80.23 8.08733 80.4207 9.048 80.4207 10.148V10.874H72.3247V9.422H78.4627L78.0887 9.73C78.0887 8.70333 77.8687 7.91867 77.4287 7.376C77.0034 6.83333 76.38 6.562 75.5587 6.562C74.6494 6.562 73.9454 6.88467 73.4467 7.53C72.9627 8.17533 72.7207 9.07733 72.7207 10.236V10.522C72.7207 11.7247 73.014 12.6267 73.6007 13.228C74.202 13.8147 75.0454 14.108 76.1307 14.108C76.7614 14.108 77.348 14.0273 77.8907 13.866C78.448 13.69 78.976 13.4113 79.4747 13.03L80.2887 14.878C79.7607 15.3033 79.13 15.6333 78.3967 15.868C77.6634 16.1027 76.886 16.22 76.0647 16.22Z" fill="#030D6C"/>
</svg>
