<svg width="25" height="24" viewBox="0 0 25 24" fill="none" xmlns="http://www.w3.org/2000/svg">
<path fill-rule="evenodd" clip-rule="evenodd" d="M2.93597 0.0144362C2.11762 0.123953 1.32124 0.545322 0.770925 1.15994C0.512036 1.44906 0.207455 2.00133 0.0905338 2.39375C0.00477552 2.68167 0.000715088 3.10777 0.000715088 11.8565C0.000715088 22.1627 -0.0335784 21.23 0.372807 21.972C0.708502 22.5849 1.18529 23.037 1.83163 23.3553C2.61417 23.7406 1.63056 23.7081 12.5 23.7081C23.3694 23.7081 22.3858 23.7406 23.1684 23.3553C23.8147 23.037 24.2915 22.5849 24.6272 21.972C25.0336 21.23 24.9993 22.1627 24.9993 11.8565C24.9993 1.54916 25.0337 2.48309 24.6266 1.73985C24.1847 0.932969 23.4532 0.364881 22.5043 0.0916223C22.2249 0.0111892 21.7495 0.00682889 12.6468 0.000937889C7.38654 -0.00244828 3.01669 0.00362827 2.93597 0.0144362ZM7.52122 4.53108C8.31511 4.78462 8.83333 5.36468 8.97946 6.16316C9.15841 7.14093 8.45307 8.15817 7.41188 8.42401C7.06078 8.51363 6.49521 8.49067 6.16137 8.37317C4.84339 7.90945 4.31749 6.46555 5.06447 5.3618C5.23339 5.11215 5.58381 4.79566 5.8223 4.67724C6.33108 4.42462 7.00618 4.36654 7.52122 4.53108ZM17.5878 9.29778C19.0473 9.65908 19.8091 10.5583 20.1677 12.3435C20.2284 12.6456 20.2463 13.2994 20.2637 15.8577L20.2851 19.0007L20.1387 19.1395L19.9924 19.2782H18.5952H17.198L17.0382 19.1429L16.8784 19.0076L16.8521 16.1394C16.8233 12.9864 16.8336 13.0938 16.5106 12.5632C16.2289 12.1004 15.7217 11.8748 15.048 11.9126C14.8201 11.9254 14.5883 11.9709 14.4472 12.0304C14.0032 12.2177 13.6434 12.6722 13.4415 13.3005C13.3728 13.5144 13.3577 13.9351 13.3343 16.2786L13.3072 19.0076L13.1474 19.1429L12.9876 19.2782H11.6393H10.291L10.148 19.1426L10.005 19.007V14.3192V9.63143L10.1477 9.47994L10.2904 9.32844L11.6031 9.31582C12.848 9.30386 12.9241 9.30808 13.076 9.397C13.2865 9.52029 13.3317 9.64864 13.3317 10.1242V10.5196L13.528 10.2841C13.8639 9.88113 14.4238 9.51872 14.9697 9.35085C15.6174 9.15162 16.893 9.12578 17.5878 9.29778ZM8.35307 9.48008L8.51295 9.63171L8.52596 14.2346C8.53555 17.6259 8.52415 18.8715 8.48267 18.9667C8.45165 19.0377 8.37132 19.1369 8.30406 19.187C8.18933 19.2726 8.1001 19.2782 6.8626 19.2782H5.54345L5.37712 19.1205L5.21079 18.9628V14.3067C5.21079 10.0799 5.21813 9.64066 5.29043 9.54274C5.45241 9.32352 5.58205 9.30576 6.93437 9.31749L8.19325 9.32844L8.35307 9.48008Z" fill="white"/>
</svg>
