<svg width="25" height="24" viewBox="0 0 25 24" fill="none" xmlns="http://www.w3.org/2000/svg">
<path fill-rule="evenodd" clip-rule="evenodd" d="M11.3328 0.0275276C7.08442 0.416132 3.28985 2.8555 1.36698 6.43417C0.686953 7.69984 0.285148 8.92022 0.0652877 10.3877C-0.032167 11.0385 -0.0180283 12.722 0.0910701 13.4476C0.284805 14.7361 0.685681 15.957 1.30006 17.1299C2.51897 19.4569 4.46621 21.3019 6.92669 22.4614C10.9153 24.3409 15.6292 24.0825 19.3495 21.7803C20.8042 20.8801 22.1828 19.5456 23.1239 18.1267C23.4816 17.5874 24.0216 16.5389 24.2669 15.9078C24.5141 15.2717 24.8023 14.1678 24.9092 13.4476C25.0175 12.7181 25.0321 11.0304 24.9357 10.3877C24.6469 8.46245 24.0026 6.82337 22.933 5.2926C22.4782 4.64159 22.0239 4.11636 21.3909 3.50971C19.4397 1.63948 17.0125 0.479555 14.2371 0.0909969C13.6386 0.00722118 11.9567 -0.0295437 11.3328 0.0275276ZM11.1572 9.60401C12.1229 11.6081 12.9202 13.2302 12.929 13.2086C12.9378 13.1871 13.632 11.5526 14.4717 9.57638L15.9983 5.98335L18.1631 5.97129L20.328 5.95919V6.09475C20.328 6.20885 20.2198 6.3273 19.6431 6.84433L18.9581 7.45835V11.8474V16.2364L19.6186 16.8518C20.1656 17.3614 20.2791 17.4902 20.2791 17.6016V17.7361H17.2214H14.1637V17.605C14.1637 17.4977 14.288 17.3583 14.8486 16.8369L15.5335 16.1999L15.5307 12.7606L15.5279 9.32139L14.9056 10.805C14.5634 11.6209 13.7776 13.5037 13.1594 14.989L12.0355 17.6894L11.7909 17.6891L11.5463 17.6889L9.516 13.4941L7.48569 9.29932L7.4717 12.1848C7.46402 13.7718 7.47028 15.1367 7.48559 15.218C7.50477 15.3197 7.79395 15.6874 8.41537 16.4002C9.09487 17.1795 9.31776 17.4661 9.31884 17.5622L9.3203 17.6897H6.99646H4.67262V17.5748C4.67262 17.4941 4.92966 17.1658 5.53469 16.4737C6.00885 15.9313 6.42714 15.4204 6.46423 15.3383C6.51956 15.216 6.53169 14.5643 6.53169 11.7135C6.53169 9.79642 6.51217 8.18979 6.4882 8.13059C6.46427 8.07157 6.09001 7.6176 5.65651 7.12181C5.05152 6.42986 4.86831 6.19007 4.86831 6.09026V5.96016H7.13486H9.40142L11.1572 9.60401Z" fill="white"/>
</svg>
