<svg width="45" height="38" viewBox="0 0 45 38" fill="none" xmlns="http://www.w3.org/2000/svg">
<path fill-rule="evenodd" clip-rule="evenodd" d="M2.59553 0.118615C1.55116 0.35863 0.768718 0.929345 0.275039 1.81119L0 2.3024V18.9659V35.6294L0.275039 36.1206C0.622752 36.7417 1.03971 37.1505 1.63976 37.4588C2.1572 37.7246 2.97422 37.9343 3.49245 37.9343C3.93377 37.9343 4.34149 37.6257 4.41338 37.2373C4.45957 36.9876 4.43045 36.9258 4.15523 36.6894C3.94583 36.5096 3.76335 36.4227 3.59416 36.4224C2.87735 36.4212 2.17321 36.0337 1.87978 35.4789C1.7266 35.1893 1.71948 34.5443 1.71763 20.8741L1.71569 6.57219H22.48H43.2442V20.8782V35.1841L43.0158 35.5779C42.8461 35.8702 42.6819 36.0249 42.3779 36.1784L41.9685 36.3851L26.4096 36.4229L10.8508 36.4607L10.6384 36.6727C10.2486 37.062 10.3961 37.6605 10.9285 37.8495C11.1115 37.9145 15.1275 37.9316 26.7032 37.9166L42.2324 37.8965L42.7163 37.7254C43.4308 37.4728 44.0027 37.077 44.3822 36.5726C45.0645 35.666 45.0148 37.1299 44.9859 18.7392L44.9599 2.3024L44.6849 1.81119C44.3372 1.19007 43.9202 0.781301 43.3202 0.47297C42.3282 -0.0366085 43.8181 -0.00305474 22.4395 0.00246197C5.68765 0.00676954 3.01425 0.0224128 2.59553 0.118615ZM42.1444 1.65219C42.338 1.72912 42.6032 1.88993 42.7337 2.00949C43.1707 2.40979 43.2442 2.6857 43.2442 3.92477V5.06076H22.48H1.71569L1.71763 3.9083C1.71921 2.94756 1.74684 2.70422 1.88357 2.44561C2.08435 2.06586 2.3534 1.83696 2.8155 1.65264C3.15511 1.51714 3.84535 1.51223 22.48 1.51223C41.0925 1.51223 41.8053 1.51729 42.1444 1.65219ZM4.47734 2.48695C4.2133 2.5827 3.9153 2.93297 3.9153 3.14767C3.9153 4.09042 5.50077 4.20846 5.6463 3.27652C5.68809 3.00945 5.65967 2.93312 5.44297 2.72855C5.17426 2.47508 4.78133 2.37677 4.47734 2.48695ZM7.69862 2.46632C7.01041 2.69704 6.90562 3.53981 7.53066 3.81738C8.12904 4.08317 8.72715 3.83106 8.81373 3.27652C8.85552 3.00945 8.8271 2.93312 8.6104 2.72855C8.36237 2.49458 7.95976 2.37881 7.69862 2.46632ZM10.8661 2.46632C10.1778 2.69704 10.073 3.53981 10.6981 3.81738C11.3119 4.09004 12.0098 3.77015 12.0098 3.21629C12.0098 2.74465 11.342 2.30679 10.8661 2.46632ZM28.1387 8.04311C27.7592 8.18488 27.6258 8.44621 27.5025 9.29034C27.4451 9.68384 27.3902 10.0094 27.3806 10.0137C27.3709 10.018 27.177 10.1131 26.9497 10.2249L26.5362 10.4282L25.6394 10.1213C24.6651 9.7879 24.3953 9.77921 24.0856 10.0713C23.7897 10.3504 22.04 13.0294 22.04 13.2034C22.04 13.5141 22.2499 13.7587 22.8374 14.1329C23.6137 14.6272 23.6421 14.6623 23.6512 15.144L23.6591 15.556L22.9619 16.0151C22.2275 16.4988 22.0482 16.6914 22.0431 17.0021C22.04 17.1944 23.7563 19.8412 24.0858 20.1522C24.3996 20.4485 24.6801 20.4401 25.6514 20.1054L26.5423 19.7984L26.9527 20.0002C27.1784 20.1111 27.3709 20.2055 27.3806 20.2098C27.3902 20.2141 27.4451 20.5397 27.5025 20.9332C27.6973 22.2665 27.7472 22.291 30.2666 22.291C32.1939 22.291 32.5736 22.235 32.7688 21.9216C32.8222 21.8361 32.9221 21.4214 32.9909 21.0001C33.0598 20.5787 33.1283 20.2268 33.143 20.218C33.1579 20.2091 33.3534 20.1118 33.5775 20.0017L33.985 19.8013L34.874 20.1101C35.8045 20.4331 36.0222 20.4454 36.366 20.1949C36.4665 20.1216 36.9733 19.4326 37.4922 18.6636C38.7553 16.792 38.7555 16.7984 37.42 15.9264L36.8214 15.5356V15.1151V14.6945L37.4153 14.3052C38.7551 13.4267 38.7549 13.4317 37.4872 11.5599C36.9663 10.791 36.5013 10.1211 36.4538 10.0712C36.4063 10.0214 36.2332 9.9426 36.0693 9.89612C35.8022 9.8204 35.6786 9.84352 34.881 10.1184L33.9909 10.4251L33.5804 10.2233C33.3547 10.1124 33.1579 10.0144 33.143 10.0055C33.1283 9.99671 33.0589 9.63971 32.9891 9.2122C32.9192 8.78469 32.8031 8.35756 32.7309 8.26302C32.6589 8.16848 32.451 8.05558 32.269 8.0122C31.7568 7.89008 28.4828 7.91449 28.1387 8.04311ZM16.674 9.00498C16.3404 9.11093 16.1538 9.28936 16.095 9.55847C16.0144 9.92733 16.2414 10.2227 16.8488 10.5396L17.3796 10.8165L16.4324 11.2239C14.6278 12.0001 12.8924 13.3007 11.7555 14.729C10.8481 15.869 9.98621 17.5251 9.98621 18.1288C9.98621 18.6732 10.6266 18.9987 11.2147 18.7531C11.4829 18.6411 11.5572 18.5399 11.8355 17.9079C12.3222 16.8032 12.4989 16.4988 13.1152 15.7036C14.0923 14.443 15.4824 13.3625 17.0273 12.6629C17.449 12.4719 17.8151 12.3156 17.8409 12.3156C17.8666 12.3156 17.7702 12.5559 17.6266 12.8495C17.3203 13.4756 17.3452 13.7271 17.742 14.0139C18.2016 14.3461 18.8153 14.2047 19.0926 13.703C19.6604 12.6753 20.3683 11.2046 20.3683 11.0529C20.3683 10.6614 20.1308 10.4712 18.7559 9.76198C17.2775 8.99939 17.0042 8.90001 16.674 9.00498ZM31.3701 10.1729C31.4447 10.5531 31.5612 10.9215 31.6289 10.9917C31.6968 11.0618 32.0118 11.2326 32.3291 11.3712C32.6465 11.5098 33.0425 11.711 33.2091 11.8183C33.6136 12.0786 34.0099 12.0695 34.7974 11.7816C35.1461 11.6542 35.4423 11.5607 35.4558 11.5738C35.4693 11.587 35.6915 11.9183 35.9496 12.3101L36.419 13.0225L36.03 13.2925C35.816 13.441 35.5106 13.6696 35.3514 13.8006L35.0617 14.0386V15.1118V16.1849L35.3514 16.4229C35.5106 16.5539 35.816 16.7825 36.03 16.931L36.419 17.201L35.9496 17.9134C35.6915 18.3053 35.4703 18.6357 35.4581 18.6477C35.4459 18.6598 35.133 18.5663 34.7627 18.4399C33.9331 18.1569 33.6063 18.1496 33.2091 18.4052C33.0425 18.5125 32.6397 18.7166 32.3141 18.8587C31.9886 19.001 31.6644 19.1937 31.5938 19.2872C31.5232 19.3806 31.4173 19.7547 31.3585 20.1184L31.2517 20.7796H30.2532C29.7041 20.7796 29.2546 20.7541 29.2544 20.7229C29.2528 20.4525 28.9791 19.3093 28.8952 19.2225C28.8362 19.1615 28.5134 18.9933 28.1777 18.8485C27.842 18.7038 27.4385 18.501 27.2809 18.3978C26.8989 18.1475 26.5144 18.1573 25.7495 18.4369C25.4083 18.5616 25.1117 18.6636 25.0902 18.6636C25.0501 18.6636 24.1704 17.3585 24.1302 17.2393C24.1178 17.2026 24.3921 16.9806 24.7398 16.7462C25.0875 16.5118 25.3912 16.2607 25.4148 16.1882C25.4874 15.9645 25.4573 14.0987 25.379 13.9719C25.3382 13.9061 25.0262 13.6702 24.6856 13.4478L24.0661 13.0433L24.2737 12.7361C24.3878 12.5672 24.6088 12.2334 24.7647 11.9944C24.9207 11.7555 25.0589 11.5599 25.0718 11.5599C25.0847 11.5599 25.3834 11.6619 25.7354 11.7866C26.5559 12.0773 26.8728 12.0764 27.3706 11.7822C27.5857 11.6551 27.9919 11.453 28.2734 11.333C28.5548 11.213 28.8339 11.0644 28.8937 11.0026C28.9791 10.9141 29.2529 9.77256 29.2544 9.49809C29.2546 9.46559 29.7002 9.44859 30.2446 9.4603L31.2344 9.48169L31.3701 10.1729ZM29.0717 12.5683C28.3884 12.8097 27.9581 13.1121 27.576 13.6193C26.7556 14.7084 26.9268 16.139 27.9862 17.049C28.3657 17.375 29.0007 17.6915 29.4703 17.7889C29.9838 17.8954 30.884 17.8438 31.3988 17.6784C32.1015 17.4526 32.8497 16.8423 33.176 16.2289C33.391 15.8249 33.4286 15.6584 33.4286 15.1118C33.4286 14.5652 33.391 14.3987 33.176 13.9947C32.8522 13.3859 32.101 12.7708 31.4101 12.5488C30.7197 12.3269 29.7315 12.3351 29.0717 12.5683ZM30.9263 14.0159C31.0665 14.0782 31.2916 14.2533 31.4264 14.4051C31.6281 14.6324 31.6714 14.757 31.6714 15.1118C31.6714 15.4665 31.6281 15.5911 31.4264 15.8184C30.8833 16.43 29.934 16.5246 29.3129 16.029C28.569 15.4354 28.6572 14.5692 29.5118 14.0745C29.8648 13.8701 30.5355 13.8423 30.9263 14.0159ZM14.1655 20.3754C10.6797 20.8574 7.91189 23.0065 7.06328 25.89C6.81007 26.7502 6.78816 28.4621 7.02 29.2615C7.55952 31.1217 8.84514 32.7089 10.6506 33.7437C12.0991 34.5738 13.5065 34.9361 15.3093 34.9428C17.0126 34.949 18.3066 34.6467 19.7882 33.8966C20.527 33.5226 21.7397 32.5566 22.2663 31.9228C25.2156 28.3728 23.9332 23.3818 19.528 21.2658C18.2311 20.6429 17.1824 20.4016 15.6172 20.3659C14.9639 20.3511 14.3106 20.3554 14.1655 20.3754ZM17.2449 22.0638C18.429 22.3844 19.1938 22.7872 20.1094 23.5725C20.8297 24.1903 21.0088 24.3966 21.3586 25.0116C21.8357 25.8501 22.0308 26.4543 22.0999 27.3062C22.3052 29.8383 20.3773 32.3105 17.5541 33.1352C15.0398 33.8697 12.4382 33.3382 10.5581 31.7062C9.1347 30.4705 8.49364 29.0285 8.60644 27.3165C8.77995 24.6836 10.9122 22.5558 13.9895 21.9448C14.7742 21.789 16.4571 21.8505 17.2449 22.0638ZM14.8654 23.6857C14.7173 23.8129 14.6494 23.9554 14.6494 24.1391C14.6494 24.3115 14.6077 24.407 14.5324 24.407C14.2578 24.407 13.614 24.8723 13.3819 25.2387C13.0228 25.8054 12.9868 26.3238 13.2698 26.8547C13.4623 27.2159 13.5829 27.3271 14.0729 27.5954L14.6494 27.9111V28.9552C14.6494 30.1097 14.6532 30.1035 14.0985 29.8482C13.9179 29.7651 13.6513 29.697 13.5059 29.697C12.9691 29.697 12.6845 30.2765 13.062 30.6008C13.2945 30.8005 13.8696 31.0461 14.2732 31.1182C14.5725 31.1716 14.6089 31.2048 14.6593 31.4715C14.7608 32.0073 15.3393 32.2098 15.7531 31.8542C15.9002 31.728 15.9691 31.5844 15.9691 31.4044C15.9691 31.1651 16.0055 31.1262 16.3509 30.9949C17.1326 30.6979 17.7146 29.9931 17.7923 29.2491C17.8835 28.3771 17.4363 27.6988 16.5182 27.3165L15.9736 27.0898L15.9713 26.3152C15.9701 25.8892 15.9989 25.5417 16.0351 25.543C16.0714 25.5443 16.178 25.5953 16.2719 25.6564C16.6294 25.8886 17.1093 25.7619 17.2899 25.3876C17.3892 25.1816 17.3823 25.1285 17.2332 24.9501C17.1399 24.8385 16.8178 24.6451 16.5175 24.5204C16.0421 24.323 15.9713 24.2663 15.9703 24.0825C15.9688 23.8149 15.6116 23.5002 15.3093 23.5002C15.1839 23.5002 14.9842 23.5837 14.8654 23.6857ZM34.9737 23.5535C34.6767 23.6468 34.4434 23.9253 34.2658 24.3982C33.4173 26.6586 31.3834 28.6914 28.859 29.8022C28.5247 29.9492 28.2387 30.0586 28.2232 30.0454C28.2078 30.0321 28.2947 29.8378 28.4162 29.6135C28.5377 29.3893 28.6375 29.0757 28.638 28.9166C28.6398 28.3058 27.8033 27.9603 27.2797 28.3556C26.9648 28.5935 25.7354 30.9822 25.7354 31.3564C25.7354 31.7431 25.8982 31.8666 27.5091 32.7012C29.0009 33.4742 29.2377 33.5298 29.6783 33.2113C30.2479 32.7996 30.0913 32.2882 29.2606 31.8478L28.7204 31.5615L29.6931 31.1271C32.1044 30.05 34.0797 28.3233 35.2713 26.2508C35.7216 25.4676 36.1175 24.5515 36.1175 24.2927C36.1175 23.7703 35.5178 23.3827 34.9737 23.5535ZM14.6494 26.1166C14.6494 26.4858 14.632 26.5292 14.5174 26.4475C14.3646 26.3386 14.3499 26.1597 14.4712 25.8856C14.6022 25.5896 14.6494 25.6507 14.6494 26.1166ZM16.3683 28.6445C16.5414 28.932 16.5304 29.2303 16.3351 29.543C16.0421 30.0125 15.9691 29.9244 15.9691 29.1012C15.9691 28.4488 15.9882 28.3478 16.1044 28.3861C16.1787 28.4106 16.2975 28.5268 16.3683 28.6445ZM6.8113 36.6334C6.56714 36.8207 6.51479 36.9149 6.51479 37.1666C6.51479 37.7344 7.18734 38.0871 7.77332 37.8269C8.53385 37.4891 8.32586 36.5462 7.46898 36.4475C7.15558 36.4114 7.06839 36.436 6.8113 36.6334Z" fill="white"/>
</svg>
