<svg width="221" height="24" viewBox="0 0 221 24" fill="none" xmlns="http://www.w3.org/2000/svg">
<path fill-rule="evenodd" clip-rule="evenodd" d="M11.5616 0.0223101C9.74739 0.187057 8.36835 0.552779 6.86125 1.26894C4.87777 2.21141 3.0386 3.81041 1.82899 5.64412C0.955712 6.96789 0.318611 8.67952 0.0613556 10.3929C-0.0204518 10.9377 -0.0204518 12.7667 0.0613556 13.3116C0.266241 14.6762 0.646917 15.8716 1.24167 17.0179C1.91456 18.3149 2.57367 19.1862 3.66181 20.2172C4.73807 21.2369 5.67203 21.8736 6.98961 22.486C7.90895 22.9133 8.50253 23.1212 9.43454 23.3427C11.8802 23.9239 14.333 23.8125 16.7223 23.0116C17.4466 22.7689 18.711 22.1685 19.361 21.7588C21.1457 20.6336 22.6206 19.08 23.5971 17.2965C24.4807 15.6829 24.9228 14.0819 24.9918 12.246C25.066 10.2701 24.6372 8.38964 23.7093 6.62199C23.1 5.46131 22.4218 4.55163 21.4694 3.61796C20.4134 2.58251 19.3775 1.86811 17.9918 1.21941C16.5434 0.541382 15.1938 0.179459 13.5909 0.0391276C13.0927 -0.00446813 11.9602 -0.013873 11.5616 0.0223101ZM15.8044 6.55542L15.8175 7.72157L14.9242 7.73681C13.5737 7.75993 13.5665 7.76688 13.5665 9.04783V9.86008H14.7156C15.3476 9.86008 15.8647 9.86629 15.8647 9.87388C15.8647 9.88148 15.8097 10.384 15.7425 10.9906C15.6752 11.5971 15.6202 12.1329 15.6202 12.1813C15.6202 12.2648 15.5691 12.2692 14.5933 12.2692H13.5665V15.6976V19.1259H12.0506H10.5348V15.6976V12.2692H9.82573H9.1167V11.0646V9.86008H9.82006H10.5234L10.5473 8.78292C10.5744 7.56349 10.6252 7.3022 10.9488 6.71873C11.3511 5.9934 12.0881 5.53335 13.0365 5.41563C13.207 5.39445 13.8965 5.37986 14.5689 5.3832L15.7914 5.38931L15.8044 6.55542Z" fill="white"/>
<path fill-rule="evenodd" clip-rule="evenodd" d="M152.895 0.0120132C151.382 0.166671 150 0.804877 148.908 1.85329C147.936 2.7855 147.379 3.77431 147.088 5.08375C147.006 5.45184 147 5.90208 147 11.8564C147 17.8107 147.006 18.261 147.088 18.629C147.379 19.9399 147.938 20.9308 148.908 21.8574C149.892 22.7982 150.962 23.3464 152.357 23.6254C152.745 23.703 153.22 23.7085 159.5 23.7085C167.012 23.7085 166.516 23.7287 167.584 23.3788C168.546 23.0636 169.274 22.6271 170.05 21.8999C171.034 20.9772 171.618 19.9527 171.912 18.629C171.994 18.261 172 17.8109 172 11.8564C172 4.78385 172.02 5.25288 171.678 4.26602C171.352 3.3262 170.865 2.59114 170.068 1.83557C169.101 0.918063 168.131 0.410161 166.765 0.106042C166.329 0.00895164 166.26 0.00793111 159.696 0.00125124C156.05 -0.0024598 152.989 0.00236455 152.895 0.0120132ZM164.319 4.28518C165.896 4.70522 167.069 5.82563 167.486 7.31037L167.597 7.70467V11.8564V16.0081L167.486 16.4024C167.066 17.8986 165.872 19.0306 164.294 19.4287L163.879 19.5336H159.5C155.486 19.5336 155.093 19.5268 154.787 19.4522C153.158 19.0555 151.94 17.9206 151.514 16.4024L151.403 16.0081V11.8564V7.70467L151.514 7.31037C151.961 5.71546 153.31 4.52004 154.991 4.2278C155.297 4.17455 156.149 4.16429 159.647 4.17181C163.921 4.18099 163.928 4.18113 164.319 4.28518ZM155.058 5.64143C154.522 5.77447 154.143 5.98493 153.725 6.38104C153.302 6.78285 153.084 7.13874 152.943 7.66274C152.851 8.00536 152.846 8.18878 152.846 11.8564C152.846 15.524 152.851 15.7074 152.943 16.0501C153.084 16.5741 153.302 16.9299 153.725 17.3318C154.149 17.7336 154.524 17.9395 155.077 18.0735C155.438 18.1612 155.632 18.1652 159.5 18.1652C163.368 18.1652 163.561 18.1612 163.923 18.0735C164.475 17.9395 164.851 17.7336 165.274 17.3318C165.698 16.9299 165.915 16.5741 166.057 16.0501C166.149 15.7074 166.153 15.524 166.153 11.8564C166.153 8.18878 166.149 8.00536 166.057 7.66274C165.915 7.13874 165.698 6.78285 165.274 6.38104C164.851 5.97922 164.475 5.77331 163.923 5.63925C163.561 5.55153 163.373 5.54772 159.48 5.55018C155.639 5.55259 155.395 5.55765 155.058 5.64143ZM164.051 7.26459C164.268 7.36961 164.441 7.63685 164.441 7.86703C164.441 8.22 164.08 8.56285 163.707 8.56285C163.465 8.56285 163.183 8.39877 163.072 8.19295C162.886 7.84653 162.995 7.48247 163.345 7.28138C163.579 7.14695 163.797 7.14175 164.051 7.26459ZM160.218 8.45008C160.951 8.59365 161.564 8.90946 162.089 9.41365C162.569 9.87503 162.878 10.3793 163.057 10.9936C163.17 11.3818 163.17 12.331 163.057 12.7192C162.679 14.0165 161.59 14.9941 160.223 15.2616C157.684 15.7589 155.387 13.5806 155.908 11.1702C156.313 9.29555 158.26 8.06668 160.218 8.45008ZM158.984 9.83365C158.579 9.92698 158.27 10.095 157.955 10.3924C157.087 11.2142 157.087 12.5 157.955 13.3197C158.828 14.1436 160.179 14.1441 161.043 13.321C161.912 12.4933 161.913 11.215 161.044 10.3918C160.486 9.86236 159.739 9.65988 158.984 9.83365Z" fill="white"/>
<path fill-rule="evenodd" clip-rule="evenodd" d="M109.333 0.0275276C105.084 0.416132 101.29 2.8555 99.367 6.43417C98.687 7.69984 98.2851 8.92022 98.0653 10.3877C97.9678 11.0385 97.982 12.722 98.0911 13.4476C98.2848 14.7361 98.6857 15.957 99.3001 17.1299C100.519 19.4569 102.466 21.3019 104.927 22.4614C108.915 24.3409 113.629 24.0825 117.35 21.7803C118.804 20.8801 120.183 19.5456 121.124 18.1267C121.482 17.5874 122.022 16.5389 122.267 15.9078C122.514 15.2717 122.802 14.1678 122.909 13.4476C123.018 12.7181 123.032 11.0304 122.936 10.3877C122.647 8.46245 122.003 6.82337 120.933 5.2926C120.478 4.64159 120.024 4.11636 119.391 3.50971C117.44 1.63948 115.012 0.479555 112.237 0.0909969C111.639 0.00722118 109.957 -0.0295437 109.333 0.0275276ZM109.157 9.60401C110.123 11.6081 110.92 13.2302 110.929 13.2086C110.938 13.1871 111.632 11.5526 112.472 9.57638L113.998 5.98335L116.163 5.97129L118.328 5.95919V6.09475C118.328 6.20885 118.22 6.3273 117.643 6.84433L116.958 7.45835V11.8474V16.2364L117.619 16.8518C118.166 17.3614 118.279 17.4902 118.279 17.6016V17.7361H115.221H112.164V17.605C112.164 17.4977 112.288 17.3583 112.849 16.8369L113.534 16.1999L113.531 12.7606L113.528 9.32139L112.906 10.805C112.563 11.6209 111.778 13.5037 111.159 14.989L110.036 17.6894L109.791 17.6891L109.546 17.6889L107.516 13.4941L105.486 9.29932L105.472 12.1848C105.464 13.7718 105.47 15.1367 105.486 15.218C105.505 15.3197 105.794 15.6874 106.415 16.4002C107.095 17.1795 107.318 17.4661 107.319 17.5622L107.32 17.6897H104.996H102.673V17.5748C102.673 17.4941 102.93 17.1658 103.535 16.4737C104.009 15.9313 104.427 15.4204 104.464 15.3383C104.52 15.216 104.532 14.5643 104.532 11.7135C104.532 9.79642 104.512 8.18979 104.488 8.13059C104.464 8.07157 104.09 7.6176 103.657 7.12181C103.052 6.42986 102.868 6.19007 102.868 6.09026V5.96016H105.135H107.401L109.157 9.60401Z" fill="white"/>
<path fill-rule="evenodd" clip-rule="evenodd" d="M198.936 0.0144362C198.118 0.123953 197.321 0.545322 196.771 1.15994C196.512 1.44906 196.207 2.00133 196.091 2.39375C196.005 2.68167 196.001 3.10777 196.001 11.8565C196.001 22.1627 195.966 21.23 196.373 21.972C196.709 22.5849 197.185 23.037 197.832 23.3553C198.614 23.7406 197.631 23.7081 208.5 23.7081C219.369 23.7081 218.386 23.7406 219.168 23.3553C219.815 23.037 220.291 22.5849 220.627 21.972C221.034 21.23 220.999 22.1627 220.999 11.8565C220.999 1.54916 221.034 2.48309 220.627 1.73985C220.185 0.932969 219.453 0.364881 218.504 0.0916223C218.225 0.0111892 217.749 0.00682889 208.647 0.000937889C203.387 -0.00244828 199.017 0.00362827 198.936 0.0144362ZM203.521 4.53108C204.315 4.78462 204.833 5.36468 204.979 6.16316C205.158 7.14093 204.453 8.15817 203.412 8.42401C203.061 8.51363 202.495 8.49067 202.161 8.37317C200.843 7.90945 200.317 6.46555 201.064 5.3618C201.233 5.11215 201.584 4.79566 201.822 4.67724C202.331 4.42462 203.006 4.36654 203.521 4.53108ZM213.588 9.29778C215.047 9.65908 215.809 10.5583 216.168 12.3435C216.228 12.6456 216.246 13.2994 216.264 15.8577L216.285 19.0007L216.139 19.1395L215.992 19.2782H214.595H213.198L213.038 19.1429L212.878 19.0076L212.852 16.1394C212.823 12.9864 212.834 13.0938 212.511 12.5632C212.229 12.1004 211.722 11.8748 211.048 11.9126C210.82 11.9254 210.588 11.9709 210.447 12.0304C210.003 12.2177 209.643 12.6722 209.442 13.3005C209.373 13.5144 209.358 13.9351 209.334 16.2786L209.307 19.0076L209.147 19.1429L208.988 19.2782H207.639H206.291L206.148 19.1426L206.005 19.007V14.3192V9.63143L206.148 9.47994L206.29 9.32844L207.603 9.31582C208.848 9.30386 208.924 9.30808 209.076 9.397C209.287 9.52029 209.332 9.64864 209.332 10.1242V10.5196L209.528 10.2841C209.864 9.88113 210.424 9.51872 210.97 9.35085C211.617 9.15162 212.893 9.12578 213.588 9.29778ZM204.353 9.48008L204.513 9.63171L204.526 14.2346C204.536 17.6259 204.524 18.8715 204.483 18.9667C204.452 19.0377 204.371 19.1369 204.304 19.187C204.189 19.2726 204.1 19.2782 202.863 19.2782H201.543L201.377 19.1205L201.211 18.9628V14.3067C201.211 10.0799 201.218 9.64066 201.29 9.54274C201.452 9.32352 201.582 9.30576 202.934 9.31749L204.193 9.32844L204.353 9.48008Z" fill="white"/>
<path fill-rule="evenodd" clip-rule="evenodd" d="M60.5716 0.0223101C58.7587 0.187057 57.3807 0.552779 55.8747 1.26894C54.6783 1.83786 53.7051 2.5131 52.6777 3.48727C51.5789 4.52916 50.8895 5.44407 50.2322 6.73286C49.4618 8.24342 49.0725 9.74652 49.0082 11.4584C48.934 13.4343 49.3626 15.3148 50.2897 17.0825C50.9429 18.3277 51.6139 19.2086 52.6777 20.2172C53.7531 21.2369 54.6864 21.8736 56.003 22.486C56.9217 22.9133 57.5148 23.1212 58.4461 23.3427C60.8899 23.9239 63.3409 23.8125 65.7285 23.0116C66.4522 22.7689 67.7156 22.1685 68.3652 21.7588C70.1485 20.6336 71.6224 19.08 72.5982 17.2965C73.4811 15.6829 73.9228 14.0819 73.9918 12.246C74.066 10.2701 73.6374 8.38964 72.7103 6.62199C72.1015 5.46131 71.4237 4.55163 70.472 3.61796C69.4168 2.58251 68.3817 1.86811 66.997 1.21941C65.5497 0.541382 64.2011 0.179459 62.5994 0.0391276C62.1016 -0.00446813 60.9699 -0.013873 60.5716 0.0223101ZM65.1074 6.59762C65.4799 6.71604 65.8559 6.92077 66.1488 7.1646L66.3199 7.30702L66.6584 7.22372C67.0656 7.12355 67.6046 6.92406 67.8887 6.76835C68.0038 6.70534 68.0964 6.67777 68.0964 6.70659C68.0964 6.80703 67.8096 7.29599 67.611 7.53421C67.5007 7.66653 67.3002 7.85287 67.1654 7.94826C67.0307 8.04365 66.9418 8.12848 66.9681 8.13677C67.0445 8.16091 68.0011 7.93024 68.2576 7.82581L68.4919 7.73033L68.4041 7.87408C68.2815 8.07483 67.51 8.84255 67.2771 8.99553L67.0842 9.12228L67.0554 9.82704C67.0082 10.9808 66.7407 11.9441 66.1649 13.0336C64.9947 15.2477 62.9031 16.7363 60.4093 17.1301C58.5616 17.4217 56.8847 17.1966 55.2701 16.44C54.3891 16.0273 54.3886 16.046 55.2819 16.0391C55.9355 16.034 56.1227 16.0155 56.5202 15.9163C57.3082 15.7197 58.036 15.4045 58.5605 15.0327L58.7239 14.9169L58.4872 14.8879C58.1368 14.845 57.651 14.6908 57.3467 14.5259C56.9829 14.3288 56.4763 13.8357 56.2895 13.4969C56.0181 13.0048 55.9987 13.0336 56.6021 13.0336C57.315 13.0336 57.4163 12.9892 57.004 12.8572C56.8297 12.8013 56.5771 12.695 56.4428 12.6207C56.1001 12.4315 55.5928 11.9277 55.4032 11.5885C55.2309 11.2801 55.0502 10.6855 55.0502 10.4268C55.0502 10.292 55.0635 10.2727 55.1357 10.3028C55.3778 10.4039 55.8826 10.5472 56.079 10.5706L56.3016 10.5971L55.9316 10.2402C55.3409 9.6705 55.081 9.06993 55.0856 8.28489C55.088 7.85231 55.1434 7.60533 55.3243 7.21894L55.4438 6.96376L56.0654 7.54496C57.2327 8.6362 58.6304 9.35439 60.1563 9.64696C60.5437 9.72123 61.342 9.80911 61.3719 9.78076C61.3804 9.77265 61.3682 9.65688 61.3446 9.5235C61.2562 9.02295 61.4179 8.28289 61.7235 7.78833C62.1269 7.13578 62.9587 6.59452 63.7351 6.47944C64.1419 6.41907 64.696 6.46679 65.1074 6.59762Z" fill="white"/>
</svg>
