<svg width="46" height="46" viewBox="0 0 46 46" fill="none" xmlns="http://www.w3.org/2000/svg">
<path fill-rule="evenodd" clip-rule="evenodd" d="M16.9957 0.136782C15.3937 0.762593 15.4076 2.81936 17.018 3.42545C17.2739 3.52181 17.7155 3.56357 18.4777 3.56357H19.5705V5.20777V6.85197L19.0009 6.91077C13.539 7.47431 8.22349 10.1065 4.78822 13.9489C2.35153 16.6742 0.868948 19.6404 0.188331 23.1519C-0.062777 24.4468 -0.062777 27.9506 0.188331 29.2935C1.34452 35.4781 5.6088 40.7556 11.7006 43.5411C17.8016 46.3308 24.8973 46.3784 31.0115 43.6707C33.3122 42.6518 34.8397 41.6778 36.6476 40.0765C40.0542 37.0596 42.1774 33.2821 42.9029 28.9475C43.102 27.7576 43.1325 25.0216 42.9595 23.8618C42.4369 20.3586 41.0364 17.2481 38.7491 14.5106C38.4433 14.1446 38.1931 13.8098 38.1931 13.7665C38.1931 13.7231 38.7479 13.1891 39.4262 12.5797L40.6591 11.4719L41.4643 12.1647C42.3379 12.9165 42.7234 13.1104 43.3441 13.1104C44.7997 13.1104 45.7523 11.7588 45.1363 10.5676C45.0152 10.3336 43.9323 9.29999 41.9934 7.56781C39.1668 5.04244 39.0125 4.92012 38.5269 4.81787C37.2743 4.55404 36.1185 5.35446 36.1145 6.48848C36.1122 7.16256 36.3112 7.5075 37.1497 8.28365L37.8903 8.96915L36.6189 10.1118L35.3475 11.2545L34.4133 10.6302C31.8506 8.91793 28.9387 7.7409 25.9101 7.19325C25.2291 7.07012 24.4157 6.94298 24.1023 6.91068L23.5328 6.85197V5.20777V3.56357L24.5976 3.56161C25.8305 3.55938 26.2677 3.42849 26.7723 2.91081C27.0622 2.61343 27.2958 2.10843 27.2958 1.77911C27.2958 1.17516 26.7308 0.435769 26.0596 0.161051C25.6955 0.0120485 25.317 -0.00133499 21.5021 9.25765e-05C18.0071 0.00143092 17.2864 0.0232906 16.9957 0.136782ZM23.3138 10.439C28.5999 10.9585 33.217 13.4601 36.1291 17.3826C40.1469 22.7947 40.1463 29.6808 36.1275 35.0673C32.0928 40.4752 24.8783 43.1093 17.837 41.7452C15.6694 41.3253 13.0838 40.3045 11.3575 39.1871C6.63958 36.1333 3.91959 31.3936 3.91959 26.2262C3.91959 21.9214 5.66705 18.1349 9.06795 15.0705C10.6706 13.6263 11.8042 12.881 13.6767 12.0406C16.7527 10.6598 20.0256 10.1159 23.3138 10.439ZM20.9135 14.0466C20.355 14.2258 20.0563 14.4525 19.7973 14.8936L19.5705 15.2799V20.9796C19.5705 26.4068 19.5795 26.6953 19.759 27.0105C19.9972 27.429 20.3151 27.6968 20.7822 27.8726C21.332 28.0796 29.9939 28.0791 30.5442 27.8721C31.3387 27.5731 31.7865 26.98 31.7865 26.2262C31.7865 25.682 31.6184 25.3228 31.1937 24.9595C30.6077 24.4581 30.4706 24.4418 26.8543 24.4418H23.5328V20.0647C23.5328 17.0238 23.4975 15.5614 23.4171 15.274C23.2606 14.7139 22.644 14.1586 22.0223 14.0177C21.4564 13.8893 21.3991 13.8908 20.9135 14.0466Z" fill="white"/>
</svg>
