<svg width="25" height="24" viewBox="0 0 25 24" fill="none" xmlns="http://www.w3.org/2000/svg">
<path fill-rule="evenodd" clip-rule="evenodd" d="M11.5716 0.0223101C9.75873 0.187057 8.38071 0.552779 6.87473 1.26894C5.67829 1.83786 4.70515 2.5131 3.67767 3.48727C2.57885 4.52916 1.88946 5.44407 1.23221 6.73286C0.461798 8.24342 0.0724637 9.74652 0.00820982 11.4584C-0.0659631 13.4343 0.362559 15.3148 1.28972 17.0825C1.94286 18.3277 2.61394 19.2086 3.67767 20.2172C4.75313 21.2369 5.6864 21.8736 7.00299 22.486C7.92165 22.9133 8.51479 23.1212 9.44611 23.3427C11.8899 23.9239 14.3409 23.8125 16.7285 23.0116C17.4522 22.7689 18.7156 22.1685 19.3652 21.7588C21.1485 20.6336 22.6224 19.08 23.5982 17.2965C24.4811 15.6829 24.9228 14.0819 24.9918 12.246C25.066 10.2701 24.6374 8.38964 23.7103 6.62199C23.1015 5.46131 22.4237 4.55163 21.472 3.61796C20.4168 2.58251 19.3817 1.86811 17.997 1.21941C16.5497 0.541382 15.2011 0.179459 13.5994 0.0391276C13.1016 -0.00446813 11.9699 -0.013873 11.5716 0.0223101ZM16.1074 6.59762C16.4799 6.71604 16.8559 6.92077 17.1488 7.1646L17.3199 7.30702L17.6584 7.22372C18.0656 7.12355 18.6046 6.92406 18.8887 6.76835C19.0038 6.70534 19.0964 6.67777 19.0964 6.70659C19.0964 6.80703 18.8096 7.29599 18.611 7.53421C18.5007 7.66653 18.3002 7.85287 18.1654 7.94826C18.0307 8.04365 17.9418 8.12848 17.9681 8.13677C18.0445 8.16091 19.0011 7.93024 19.2576 7.82581L19.4919 7.73033L19.4041 7.87408C19.2815 8.07483 18.51 8.84255 18.2771 8.99553L18.0842 9.12228L18.0554 9.82704C18.0082 10.9808 17.7407 11.9441 17.1649 13.0336C15.9947 15.2477 13.9031 16.7363 11.4093 17.1301C9.56162 17.4217 7.88466 17.1966 6.27006 16.44C5.38912 16.0273 5.38858 16.046 6.28193 16.0391C6.93546 16.034 7.12266 16.0155 7.5202 15.9163C8.30815 15.7197 9.03596 15.4045 9.56054 15.0327L9.72389 14.9169L9.48725 14.8879C9.13676 14.845 8.65097 14.6908 8.34671 14.5259C7.98293 14.3288 7.47627 13.8357 7.28947 13.4969C7.01814 13.0048 6.99869 13.0336 7.60214 13.0336C8.31504 13.0336 8.41628 12.9892 8.00398 12.8572C7.82969 12.8013 7.57712 12.695 7.44275 12.6207C7.10013 12.4315 6.59279 11.9277 6.40321 11.5885C6.23087 11.2801 6.05018 10.6855 6.05018 10.4268C6.05018 10.292 6.06352 10.2727 6.13569 10.3028C6.37775 10.4039 6.8826 10.5472 7.07902 10.5706L7.30164 10.5971L6.93156 10.2402C6.34086 9.6705 6.08101 9.06993 6.08555 8.28489C6.08805 7.85231 6.14336 7.60533 6.3243 7.21894L6.44381 6.96376L7.06544 7.54496C8.23266 8.6362 9.63041 9.35439 11.1563 9.64696C11.5437 9.72123 12.342 9.80911 12.3719 9.78076C12.3804 9.77265 12.3682 9.65688 12.3446 9.5235C12.2562 9.02295 12.4179 8.28289 12.7235 7.78833C13.1269 7.13578 13.9587 6.59452 14.7351 6.47944C15.1419 6.41907 15.696 6.46679 16.1074 6.59762Z" fill="white"/>
</svg>
