<svg width="50" height="38" viewBox="0 0 50 38" fill="none" xmlns="http://www.w3.org/2000/svg">
<path fill-rule="evenodd" clip-rule="evenodd" d="M23.3568 0.188404C21.5449 0.654193 6.27155 4.89684 5.91937 5.03217C4.71353 5.49559 3.94894 6.66877 4.19259 7.68165C4.24715 7.90836 4.44563 8.4069 4.63355 8.78946C4.82157 9.17203 4.97537 9.51012 4.97537 9.54073C4.97537 9.57134 4.68293 9.63819 4.32537 9.68932C3.0244 9.87542 1.58967 10.6145 0.862724 11.4733C0.68859 11.6788 0.431837 12.0698 0.292021 12.342L0.0378103 12.837L0.0114115 23.5426C-0.0144007 34.0231 -0.0108808 34.2605 0.179777 34.8319C0.435552 35.5986 0.857933 36.1484 1.64413 36.7379C2.38437 37.2929 3.26208 37.6537 4.26289 37.8145C5.25754 37.9743 41.8471 37.9743 42.8417 37.8145C44.2782 37.5838 45.6988 36.7979 46.4152 35.8376C47.0435 34.9954 47.1157 34.5719 47.1157 31.7235V29.1785L47.3357 29.1778C47.7224 29.1765 48.5609 28.828 49.0265 28.4751C49.2747 28.287 49.5953 27.9431 49.7389 27.7108L50 27.2887V23.6943V20.0999L49.7457 19.6889C49.2934 18.958 48.5548 18.4677 47.5766 18.249L47.1646 18.1568L47.1126 15.4969C47.061 12.8643 47.058 12.8319 46.8095 12.342C46.0937 10.931 44.5121 9.91811 42.6456 9.67547L41.9466 9.58461L41.9157 7.91095L41.8848 6.23722L41.5634 5.74282C41.208 5.19596 40.6376 4.76522 39.9016 4.4879L39.4405 4.31418L34.2609 4.27712L29.0814 4.24007L28.4335 2.88643C27.6624 1.27495 27.5422 1.09338 26.9915 0.706812C26.4049 0.295124 25.6593 0.052187 24.8517 0.00972122C24.2987 -0.0194045 24.049 0.0104623 23.3568 0.188404ZM24.8929 2.2613C25.0306 2.3277 25.192 2.60792 25.6431 3.56469L25.9698 4.25748L25.1629 4.29565C24.4976 4.32715 24.251 4.37629 23.7568 4.57594C23.0391 4.86586 22.5452 5.26117 22.1967 5.82457C21.9457 6.2304 21.9383 6.28435 21.908 7.92711L21.877 9.61314L15.0149 9.61277L8.153 9.61232L7.59061 8.45055C7.0904 7.41715 7.04298 7.27189 7.16148 7.13552C7.25964 7.0225 9.55311 6.35639 15.8879 4.60114C20.6142 3.29159 24.5471 2.21653 24.6278 2.21216C24.7085 2.20786 24.8278 2.22995 24.8929 2.2613ZM38.8469 6.61689C38.976 6.71479 39.0005 6.96307 39.0005 8.17323V9.61314H31.9119H24.8234V8.17323C24.8234 6.96307 24.8479 6.71479 24.977 6.61689C25.1137 6.51328 25.8775 6.50046 31.9119 6.50046C37.9464 6.50046 38.7101 6.51328 38.8469 6.61689ZM42.545 11.9422C43.0858 12.0885 43.5563 12.3891 43.8626 12.7839L44.1336 13.1334L44.1628 15.6295L44.1921 18.1256L40.7897 18.1503L37.3872 18.175L36.605 18.3824C34.1248 19.0402 32.3728 20.4354 31.7029 22.2862C31.485 22.8884 31.4599 24.3615 31.6577 24.9488C32.1985 26.555 33.6366 27.9244 35.5165 28.6234C37.0374 29.1887 37.1552 29.2022 40.8826 29.2346L44.1825 29.2632V31.6904C44.1825 34.4226 44.1494 34.5898 43.5103 35.089C43.3107 35.2449 42.9733 35.4379 42.7606 35.5179C42.3802 35.6608 42.0561 35.6633 23.5523 35.6633C5.0485 35.6633 4.72438 35.6608 4.34404 35.5179C4.13129 35.4379 3.79299 35.2442 3.59226 35.0874C2.87285 34.5255 2.91655 35.2997 2.9452 23.6165L2.97101 13.1334L3.24204 12.7839C3.54827 12.3891 4.01885 12.0885 4.55963 11.9422C5.10423 11.7949 42.0004 11.7949 42.545 11.9422ZM46.9621 20.4757C47.0968 20.5779 47.1157 20.9713 47.1157 23.6752C47.1157 26.44 47.099 26.7722 46.9539 26.8937C46.8018 27.0211 46.5363 27.0293 42.5746 27.0293C38.0096 27.0293 37.7684 27.0122 36.7338 26.6148C35.6962 26.2163 34.7684 25.28 34.5151 24.3762C34.1271 22.9908 34.9555 21.5592 36.5701 20.8252C37.5402 20.3843 37.7296 20.3695 42.489 20.3642C46.291 20.3599 46.8268 20.3732 46.9621 20.4757ZM38.1418 22.7059C37.0867 23.1001 37.1031 24.2665 38.1694 24.6577C38.3916 24.7393 38.6776 24.806 38.805 24.806C39.2409 24.806 39.8329 24.525 40.0696 24.2058C40.7635 23.27 39.4232 22.2272 38.1418 22.7059Z" fill="white"/>
</svg>
